<svg xmlns="http://www.w3.org/2000/svg" xmlns:xlink="http://www.w3.org/1999/xlink" width="200" height="200" viewBox="0 0 200 200"><symbol id="a" viewBox="-82.979 -78.804 165.96 157.608"><path d="M-68.393-55.115s-15.02 0-10.901-1.938c4.118-1.938 12.354-6.3 9.205-7.513-3.149-1.211-31.977-8.725 8.479-12.843 40.457-4.119 77.521 1.939 74.131 4.605-3.393 2.664-5.815 2.422 4.844 3.877 10.659 1.454 70.98 12.116 48.937 11.874-22.046-.242-134.695 1.938-134.695 1.938z" fill="#F5D4B0"/><g fill="#A74E49"><path d="M-.861 42.904l-.005.024.005-.024zM-.888 41.918c.033-.003.098.51.149.798l-.123.188c.023-.123-.067-.981-.026-.986zM-.701 41.898c.029-.003.076.313.122.59l-.102.148c-.015-.299-.051-.734-.02-.738zM9.374-23.034l.629 2.85-1.381 2.694.612 2.962-1.386 2.723.619 2.924-1.37 2.615.609 2.982-1.381 2.695.613 2.964-1.38 2.702.607 2.987-1.387 2.733.604 3.03-1.38 2.691.607 3-1.378 2.673.608 2.99-1.377 2.675.607 2.994-1.38 2.688.606 3.008-1.383 2.708.604 3.03s-.182-.532-.431-.566l-.065 1.001v-1.007 1.007l-.058-1.003-.021 1.015-.233-.988.01 1.011-.195-.991.033 1.009-.178-.995-.08 1.023-.273-.983-.035 1.016-.243-.985-.013 1.014-.224-.989.002 1.012c-.022.002-.056-.186-.09-.399l.07-.122c-.188-1.296-1.142-1.175-1.287-2.476l.708-2.741-1.301-2.607.687-2.947-1.316-2.722.697-2.85-1.312-2.697.68-2.997-1.316-2.743.685-2.949-1.313-2.726.685-2.954-1.317-2.748.681-2.989-1.321-2.791.68-2.941-1.317-2.76.687-2.929-1.316-2.749.685-2.93-1.316-2.756.686-2.943-1.319-2.77c-.146-1.32.7-1.513.699-2.67h18.597c-.331.798-1.072.87-1.224 1.987zM-.687 42.909l-.051-.192.058-.081-.007.273z"/></g><g fill="#A8C541"><path d="M2.151 46.592c-.352-.314-.42-2.22-.55-3.237.446.842 1.376 2.284 1.466 2.866-.241.146-.458.27-.623.337l-.293.034zM1.401 42.718c.09-.021.148.241.2.638-.193-.365-.296-.618-.2-.638zM40.264 71.485c.422-.039.705-.039.703.046-.001.083-.283.046-.703-.046zM36.819 71.766c-.09-.5-.135-.892 0-.938.42-.15 2.375.43 3.444.658-.992.094-2.757.403-3.444.28zM36.894 74.139c-.505.078-1.986-2.973-2.576-2.949-.491.02-.565 3.18-1.179 3.167l-1.856-3.257c-.531-.051-1.24 3.032-1.859 2.943-.581-.084-.777-3.307-1.347-3.422-.538-.111-1.725 2.845-2.331 2.692-.577-.147-.318-3.348-.869-3.518-.527-.163-2.111 2.634-2.693 2.423-.56-.201.113-3.334-.412-3.554-.506-.213-2.436 2.401-2.985 2.141-.532-.252.522-3.283.03-3.546-.479-.255-2.712 2.153-3.226 1.85-.499-.298.912-3.193.455-3.494-.478-.312-3.015 1.845-3.519 1.477-.446-.324 1.321-3.039.93-3.352-.417-.33-3.156 1.605-3.577 1.237-.445-.391 1.591-2.942 1.206-3.312-.389-.375-3.358 1.274-3.746.861-.392-.417 1.944-2.732 1.61-3.123-.354-.413-3.519.924-3.862.476-.349-.454 2.256-2.512 1.967-2.931-.308-.441-3.633.555-3.921.081-.306-.502 2.544-2.261 2.301-2.712-.259-.479-3.722.114-3.949-.384-.241-.532 2.853-1.906 2.671-2.37-.196-.511-3.756-.397-3.907-.907-.167-.564 3.156-1.418 3.056-1.88-.117-.544-3.704-1.13-3.743-1.614-.034-.415 1.538-.464 2.591-.57l.001.001c.046.042.15.022.292-.035.364-.048.618-.11.63-.214l-.007-.123c.878-.531 2.078-1.385 2.299-1.116.268.328-2.002 2.857-1.661 3.292.281.362 3.22-1.28 3.512-.895.266.352-2.121 2.697-1.799 3.111.299.383 3.273-1.194 3.574-.817.282.354-2.065 2.701-1.729 3.102.317.378 3.254-1.258 3.567-.901.3.343-1.957 2.747-1.606 3.126.336.361 3.198-1.383 3.526-1.046.315.324-1.825 2.808-1.461 3.163.356.343 3.122-1.53 3.463-1.215.329.304-1.677 2.872-1.297 3.203.369.319 3.025-1.682 3.378-1.393.345.282-1.519 2.934-1.126 3.239.41.318 2.968-1.797 3.359-1.513.345.252-1.38 2.977-1 3.238.403.277 2.808-1.979 3.175-1.741.39.254-1.15 3.07-.725 3.331.432.264 2.717-2.1 3.108-1.873.397.227-.995 3.106-.566 3.338.455.246 2.624-2.215 3.034-2.006.418.212-.821 3.147-.376 3.36.475.228 2.53-2.32 2.952-2.131.448.199-.646 3.183-.174 3.383.499.211 2.478-2.405 2.917-2.23.467.185-.545 3.193-.069 3.377.526.199 2.493-2.454 2.939-2.29.492.18-.56 3.183-.091 3.358.552.209 2.716-2.392 3.139-2.224.541.216-1.087 3.041-.707 3.255l.194.06c.173.958.513 2.304.075 2.373z"/></g><path d="M-19.444 62.046c.405-.323 3.059 2.072 3.483 1.713.407-.345-1.523-3.35-1.167-3.668.365-.328 3.119 1.939 3.503 1.576.394-.373-1.688-3.284-1.346-3.627.354-.354 3.223 1.764 3.589 1.377.379-.403-1.839-3.216-1.512-3.582.339-.382 3.307 1.595 3.655 1.185.362-.43-1.977-3.153-1.666-3.539.326-.407 3.369 1.447 3.699 1.019.349-.454-2.085-3.115-1.794-3.514.313-.427 3.395 1.36 3.706.926.337-.469-2.14-3.127-1.864-3.524.302-.436 3.35 1.423 3.643 1.014.352-.492-2.002-3.358-1.725-3.727.347-.463 3.022 1.985 3.333 1.685.506-.49.447-4.472.779-4.391.348.085-1.813 3.357-1.734 4.106.047.449 3.695.227 3.643.93-.041.548-3.76 1.209-3.881 1.828-.104.523 3.34 1.491 3.167 2.129-.157.576-3.845.447-4.052 1.027-.186.523 3.021 2.083 2.771 2.682-.237.566-3.826-.107-4.095.434-.252.513 2.702 2.506 2.387 3.074-.3.536-3.747-.593-4.065-.091-.301.474 2.398 2.805 2.038 3.319-.356.508-3.638-1.006-4.003-.54-.347.443 2.075 3.066 1.668 3.538-.401.467-3.48-1.399-3.884-.975-.398.419 1.714 3.309 1.252 3.749-.436.418-3.278-1.774-3.709-1.399-.407.354 1.427 3.428.963 3.796-.523.416-3.153-2.027-3.648-1.672-.474.341.989 3.62.47 3.956-.531.344-2.846-2.383-3.342-2.094-.511.298.584 3.729.03 4.014-.57.295-2.57-2.664-3.096-2.424-.544.248.154 3.797-.426 4.027-.604.237-2.246-2.93-2.793-2.744-.571.193-.304 3.815-.902 3.981-.628.174-1.857-3.172-2.414-3.047-.591.131-.796 3.782-1.399 3.876-.642.102-1.376-3.39-1.927-3.334-.595.06-1.345 3.676-1.926 3.69-.633.016-.712-3.564-1.221-3.587-.611-.028-2.148 3.429-2.671 3.34-.692-.118.484-3.593.076-3.751-.607-.236-4.297 1.127-4.3.799-.005-.358 3.85.602 4.503.196.392-.244-1.296-3.443-.735-3.687.438-.19 2.683 2.755 3.256 2.518.485-.2-.604-3.599-.094-3.803.462-.186 2.501 2.82 3.046 2.592.493-.208-.557-3.615-.072-3.823.455-.198 2.508 2.765 3.026 2.525.488-.227-.647-3.606-.183-3.833.438-.215 2.569 2.672 3.061 2.417.463-.243-.822-3.568-.39-3.808.426-.235 2.675 2.551 3.146 2.274.445-.265-.997-3.525-.586-3.783.406-.256 2.777 2.421 3.224 2.123.441-.295-1.156-3.487-.753-3.773.383-.271 2.876 2.286 3.291 1.97.398-.296-1.39-3.38-1.033-3.665zM25.385 40.781c-.507.101-.394 3.672-.943 3.765-.525.089-1.571-3.328-2.045-3.261-.487.066-.535 3.634-1.061 3.692-.539.061-1.415-3.409-1.897-3.37-.499.041-.735 3.6-1.27 3.628-.551.03-1.264-3.481-1.755-3.467-.51.011-.92 3.555-1.459 3.557-.561 0-1.129-3.547-1.623-3.559-.519-.015-1.073 3.507-1.612 3.482-.571-.026-1.029-3.603-1.523-3.638-.527-.04-1.157 3.47-1.688 3.427-.574-.048-1.003-3.655-1.484-3.702-.527-.051-1.077 3.477-1.579 3.436-.604-.05-1.269-3.698-1.731-3.726-.575-.033-.436 3.591-.867 3.634-.701.07-3.701-2.547-3.854-2.243-.161.321 3.734.784 4.255 1.329.312.327-2.216 2.969-1.646 3.38.445.325 3.354-2.085 3.903-1.78.466.259-1.022 3.514-.423 3.793.542.253 2.826-2.647 3.401-2.428.521.195-.363 3.651.258 3.847.584.184 2.389-2.991 2.976-2.845.555.138.167 3.682.804 3.807.602.117 1.969-3.244 2.558-3.163.556.077.59 3.644 1.216 3.701.617.056 1.582-3.426 2.176-3.403.561.02.997 3.564 1.621 3.557.615-.004 1.18-3.56 1.764-3.594.578-.033 1.418 3.446 2.053 3.377.602-.062.765-3.648 1.329-3.736.533-.08 1.694 3.304 2.275 3.189.655-.131.489-3.717 1.081-3.866.563-.142 2.122 3.095 2.713 2.917.605-.186.02-3.714.562-3.908.558-.196 2.468 2.857 3.044 2.619.594-.244-.374-3.685.15-3.93.541-.256 2.797 2.571 3.347 2.276.572-.306-.785-3.609-.291-3.906.519-.309 3.11 2.236 3.623 1.885.54-.368-1.22-3.468-.765-3.813.481-.364 3.398 1.836 3.86 1.438.491-.426-1.697-3.242-1.299-3.625l4.06.914c.421-.475-2.259-2.846-1.947-3.25.373-.485 4.003.577 4.273.119.357-.606-3.055-1.951-2.912-2.366.212-.616 3.637-2.551 3.389-2.768-.269-.233-2.03 3.331-2.76 3.567-.439.14-1.79-3.214-2.338-2.942-.428.21.37 3.826-.181 4.112-.468.243-2.357-2.788-2.843-2.53-.438.234.536 3.731.009 4-.476.243-2.396-2.758-2.87-2.525-.444.22.491 3.702-.027 3.941-.489.228-2.333-2.823-2.806-2.613-.448.195.378 3.689-.135 3.897-.484.198-2.191-2.932-2.652-2.757-.456.173.218 3.691-.3 3.871-.489.17-2.045-3.038-2.507-2.89-.458.144.054 3.685-.463 3.831-.51.148-1.912-3.134-2.392-3.011-.455.118-.115 3.67-.624 3.786-.482.109-1.679-3.25-2.128-3.159z" fill="#B8CE64"/><g fill="#91B026"><path d="M-43.832 27.8c.069-.045.198.162.361.489-.264-.259-.425-.447-.361-.489zM-41.351 30.47c.021.123-.312.288-.751.475-.414-.438-.985-1.883-1.369-2.656.678.665 2.043 1.799 2.12 2.181zM-3.181 42.298c.34-.165.576-.253.601-.178.027.082-.221.133-.601.178zM-6.014 43.531l-.11-.232c-.021-.154-.023-.375-.019-.625.506-.229 2.085-.277 2.962-.375-.869.418-2.419 1.328-2.833 1.232zM-6.124 43.299c.021.134.054.219.108.232h.002c.402.822 1.09 1.992.741 2.177-.403.218-2.527-2.105-3.016-1.916-.414.16.441 3.016-.086 3.178-.475.148-2.028-2.506-2.528-2.393-.452.104-.117 3.055-.652 3.146-.503.086-1.629-2.742-2.131-2.687-.473.049-.557 3.019-1.098 3.049-.511.028-1.254-2.903-1.748-2.903-.469 0-.904 2.94-1.428 2.914-.516-.024-.914-3.008-1.404-3.057-.468-.047-1.231 2.828-1.745 2.751-.508-.074-.567-3.073-1.045-3.168-.474-.095-1.565 2.681-2.081 2.553-.488-.122-.214-3.099-.669-3.235-.432-.128-1.775 2.533-2.24 2.371-.526-.182.019-3.123-.451-3.313-.451-.182-2.105 2.31-2.573 2.096-.479-.223.408-3.067-.017-3.288-.438-.229-2.364 2.073-2.81 1.813-.464-.271.729-2.999.324-3.262-.418-.269-2.602 1.803-3.023 1.496-.437-.318 1.061-2.887.687-3.19-.392-.314-2.822 1.491-3.205 1.143-.403-.366 1.404-2.725 1.067-3.061-.355-.355-3.015 1.128-3.351.747-.357-.409 1.77-2.481 1.485-2.844l-3.453.291c-.294-.441 2.188-2.09 1.977-2.459-.253-.442-3.37.018-3.54-.391-.148-.354 1.083-.788 1.924-1.145l.14.113c.346.166 1.844-2.448 2.265-2.162.329.225-.742 3.116-.32 3.415.357.254 2.264-2.03 2.635-1.762.336.244-.868 3.018-.465 3.3.365.255 2.294-2.002 2.656-1.755.344.231-.826 2.997-.426 3.254.378.243 2.248-2.063 2.615-1.836.347.212-.733 3-.335 3.23.376.22 2.143-2.168 2.504-1.97.355.193-.602 3.02-.196 3.229.385.195 2.035-2.275 2.398-2.102.362.174-.464 3.037-.055 3.217.404.18 1.936-2.37 2.317-2.212.362.147-.324 3.043.083 3.196.385.146 1.756-2.491 2.116-2.363.407.141-.095 3.077.349 3.213.424.133 1.677-2.565 2.06-2.458.395.111.026 3.061.451 3.168.439.111 1.559-2.651 1.952-2.563.407.09.197 3.055.633 3.139.452.088 1.441-2.729 1.846-2.664.419.07.351 3.041.796 3.103.464.066 1.338-2.796 1.747-2.751.431.048.485 3.017.934 3.059.474.044 1.259-2.857 1.671-2.829.439.029.559 2.998 1.002 3.021.477.028 1.245-2.9 1.647-2.882.44.018.491 2.991.91 3.014.504.029 1.47-2.907 1.854-2.875.315.025.192 1.332.174 2.241l-.1.057c-.075.064-.007.281.121.57z"/></g><path d="M-1.79 41.564c0-1.865-1.073-3.376-2.396-3.376s-2.397 1.512-2.397 3.376c0 1.865 1.074 3.377 2.397 3.377 1.323 0 2.396-1.512 2.396-3.377zM5.744 43.514c0-1.745-1.27-3.159-2.832-3.159-1.564 0-2.832 1.414-2.832 3.159 0 1.745 1.268 3.161 2.832 3.161 1.563-.001 2.832-1.416 2.832-3.161zM.722 44.297c0-1.866-.976-3.378-2.178-3.378-1.203 0-2.178 1.512-2.178 3.378s.975 3.377 2.178 3.377c1.202 0 2.178-1.511 2.178-3.377z" fill="#CB947F"/><g fill="#A74E49"><path d="M53.392-1.459l.004.021-.004-.021zM53.409-2.297c-.022-.004-.066.434-.103.678l.085.16c-.015-.107.047-.834.018-.838zM53.281-2.316c-.02-.003-.052.268-.083.502l.069.126c.011-.254.037-.626.014-.628zM46.377-57.542l-.431 2.424.946 2.292-.419 2.519.949 2.317-.424 2.486.938 2.224-.418 2.536.947 2.292-.42 2.521.945 2.298-.416 2.539.949 2.327-.412 2.576.945 2.288-.416 2.549.943 2.277-.417 2.542.945 2.276-.416 2.545.945 2.286-.416 2.559.947 2.302-.412 2.578s.124-.452.293-.48l.047.851v-.854.854l.039-.853.015.863.16-.84-.007.859.135-.842-.023.857.122-.844.055.868.188-.835.024.863.167-.838.008.863.153-.84.002.862c.016.002.038-.158.062-.339l-.048-.104c.128-1.104.782-.999.881-2.106l-.484-2.33.892-2.218-.47-2.506.899-2.315-.476-2.423.898-2.294-.466-2.549.902-2.332-.47-2.508.901-2.318-.469-2.512.902-2.338-.467-2.541.906-2.374-.471-2.504.904-2.348-.471-2.493.901-2.338-.471-2.493.903-2.343-.469-2.502.903-2.357c.101-1.123-.479-1.287-.478-2.272h-12.741c.226.68.733.74.837 1.69zM53.271-1.456l.035-.164-.039-.068.004.232z"/></g><g fill="#A8C541"><path d="M51.328 1.678c.239-.268.286-1.889.376-2.753-.306.716-.943 1.94-1.004 2.437.164.125.312.229.426.287l.202.029zM51.842-1.62c-.062-.017-.102.206-.138.544.133-.31.203-.525.138-.544zM25.209 22.85c-.289-.035-.482-.035-.482.037.001.072.195.04.482-.037zM27.569 23.088c.061-.424.092-.76 0-.8-.288-.128-1.628.366-2.36.562.679.08 1.89.342 2.36.238zM27.518 25.106c.347.066 1.362-2.53 1.766-2.508.336.017.388 2.705.808 2.694l1.274-2.771c.364-.042.849 2.58 1.273 2.502.398-.07.534-2.812.924-2.91.368-.095 1.182 2.42 1.596 2.289.396-.125.219-2.845.597-2.992.362-.14 1.446 2.241 1.846 2.063.384-.174-.077-2.837.282-3.026.347-.18 1.669 2.043 2.047 1.823.364-.215-.358-2.792-.021-3.016.327-.217 1.857 1.832 2.209 1.574.343-.253-.624-2.715-.311-2.971.326-.266 2.065 1.568 2.411 1.256.306-.277-.905-2.586-.638-2.852.284-.281 2.162 1.365 2.451 1.053.306-.332-1.09-2.502-.825-2.817.266-.32 2.3 1.082 2.565.733.27-.356-1.332-2.324-1.103-2.657.241-.352 2.411.785 2.646.405.238-.386-1.546-2.137-1.348-2.493.211-.377 2.489.471 2.688.068.209-.427-1.745-1.923-1.578-2.308.178-.407 2.551.1 2.706-.326.166-.451-1.954-1.62-1.83-2.015.135-.434 2.575-.337 2.679-.771.113-.479-2.163-1.208-2.094-1.599.079-.464 2.537-.96 2.564-1.372.023-.354-1.054-.395-1.774-.484h-.002c-.031.035-.102.02-.2-.03-.25-.04-.424-.094-.431-.182l.005-.105c-.602-.453-1.425-1.178-1.576-.949-.184.279 1.371 2.43 1.138 2.8-.192.307-2.206-1.089-2.406-.761-.182.298 1.455 2.293 1.233 2.645l-2.45-.693c-.194.298 1.416 2.297 1.185 2.637-.219.323-2.23-1.07-2.445-.765-.205.291 1.342 2.334 1.101 2.657-.229.31-2.192-1.175-2.415-.889-.216.276 1.249 2.388.999 2.69-.242.292-2.139-1.299-2.372-1.032-.226.257 1.148 2.442.889 2.722-.254.273-2.073-1.43-2.315-1.185-.236.241 1.041 2.498.771 2.757-.281.27-2.033-1.527-2.302-1.288-.236.216.946 2.532.685 2.754-.275.237-1.925-1.683-2.177-1.482-.267.217.789 2.614.497 2.834-.295.225-1.861-1.786-2.13-1.594-.273.192.682 2.641.387 2.839-.312.21-1.797-1.884-2.078-1.707-.286.18.562 2.676.257 2.858-.324.192-1.733-1.976-2.022-1.813-.308.17.441 2.708.119 2.876-.343.181-1.698-2.044-1.999-1.895-.32.157.374 2.715.047 2.872-.36.172-1.708-2.086-2.014-1.946-.337.151.384 2.705.062 2.856-.38.178-1.862-2.037-2.151-1.893-.371.184.745 2.586.484 2.769l-.133.052c-.119.816-.351 1.96-.051 2.019z"/></g><path d="M66.126 14.821c-.277-.273-2.096 1.762-2.387 1.457-.278-.293 1.043-2.85.8-3.122-.25-.278-2.138 1.65-2.4 1.342-.27-.318 1.156-2.793.922-3.086-.242-.299-2.209 1.503-2.46 1.172-.26-.343 1.261-2.735 1.037-3.047-.232-.323-2.267 1.357-2.505 1.007-.25-.365 1.354-2.68 1.141-3.008-.223-.347-2.308 1.23-2.534.866-.239-.386 1.429-2.649 1.229-2.99-.214-.361-2.327 1.158-2.54.788-.229-.398 1.467-2.66 1.277-2.997-.205-.371-2.294 1.21-2.495.861-.241-.419 1.372-2.856 1.182-3.171-.236-.392-2.071 1.69-2.284 1.434-.347-.416-.308-3.804-.534-3.735-.237.074 1.244 2.856 1.189 3.492-.033.385-2.533.194-2.497.792.028.467 2.576 1.029 2.66 1.555.071.444-2.289 1.267-2.17 1.81.106.491 2.635.381 2.776.875.127.445-2.071 1.771-1.899 2.281.162.481 2.623-.092 2.807.37.173.435-1.853 2.131-1.635 2.614.204.455 2.567-.504 2.785-.079.207.404-1.644 2.386-1.396 2.825.244.431 2.492-.859 2.742-.46.237.376-1.423 2.608-1.144 3.009.274.398 2.385-1.189 2.661-.83.274.357-1.173 2.815-.857 3.19.299.353 2.247-1.509 2.541-1.19.28.302-.977 2.915-.659 3.23.358.354 2.161-1.724 2.5-1.423.324.29-.678 3.08-.322 3.364.364.292 1.95-2.027 2.29-1.782.351.254-.399 3.172-.021 3.416.39.25 1.761-2.267 2.121-2.062.373.213-.105 3.23.292 3.424.414.202 1.539-2.491 1.914-2.333.392.165.208 3.246.618 3.386.431.149 1.273-2.698 1.654-2.592.405.112.545 3.214.959 3.297.439.085.943-2.883 1.319-2.835l1.32 3.139c.435.013.488-3.033.837-3.051.419-.024 1.472 2.916 1.83 2.84.474-.101-.332-3.057-.053-3.19.416-.202 2.944.958 2.947.679.004-.304-2.639.512-3.086.167-.269-.206.889-2.928.503-3.134-.3-.163-1.837 2.342-2.23 2.142-.333-.171.415-3.063.064-3.237-.316-.158-1.714 2.399-2.088 2.205-.338-.176.381-3.074.05-3.25-.312-.169-1.718 2.352-2.073 2.145-.336-.191.443-3.064.125-3.258-.301-.182-1.762 2.271-2.098 2.055-.317-.205.563-3.035.267-3.239-.292-.199-1.833 2.17-2.156 1.934-.306-.225.684-2.997.401-3.217-.278-.218-1.902 2.06-2.209 1.806-.302-.252.793-2.965.516-3.21-.262-.23-1.97 1.944-2.256 1.677-.269-.254.957-2.876.712-3.118zM35.405-3.266c.347.085.27 3.124.646 3.203.36.075 1.077-2.83 1.401-2.774.334.057.368 3.09.728 3.139.369.052.97-2.899 1.301-2.865.342.032.504 3.061.87 3.086.377.024.866-2.961 1.202-2.95.349.01.63 3.024.999 3.024.385 0 .774-3.015 1.114-3.026.355-.013.734 2.982 1.105 2.96.39-.022.704-3.064 1.042-3.094.361-.031.792 2.953 1.157 2.916.394-.039.688-3.108 1.017-3.147.36-.044.738 2.958 1.083 2.92.412-.042.869-3.144 1.187-3.168.394-.028.299 3.055.594 3.092.479.06 2.536-2.167 2.641-1.907.109.271-2.559.667-2.915 1.129-.214.276 1.518 2.524 1.128 2.875-.306.275-2.299-1.775-2.677-1.514-.317.22.7 2.986.291 3.225-.372.216-1.938-2.25-2.332-2.066-.356.168.25 3.107-.176 3.274-.4.157-1.638-2.543-2.039-2.42-.381.118-.114 3.131-.552 3.239-.412.099-1.351-2.758-1.751-2.69-.383.064-.405 3.098-.834 3.147-.423.047-1.084-2.915-1.49-2.895-.385.018-.685 3.032-1.111 3.026-.423-.003-.81-3.028-1.209-3.057-.396-.028-.972 2.93-1.406 2.874-.414-.054-.524-3.104-.912-3.178-.364-.068-1.161 2.81-1.558 2.711-.45-.109-.337-3.161-.741-3.287-.388-.121-1.455 2.632-1.86 2.48-.415-.157-.014-3.159-.385-3.322-.382-.169-1.69 2.426-2.086 2.226-.406-.208.256-3.133-.103-3.342-.371-.217-1.916 2.187-2.294 1.936-.392-.262.538-3.071.198-3.323-.354-.264-2.13 1.901-2.481 1.604-.37-.312.836-2.95.524-3.243-.33-.311-2.33 1.561-2.646 1.223-.338-.364 1.162-2.757.89-3.084l-2.781.777c-.29-.402 1.547-2.42 1.334-2.765-.257-.412-2.743.491-2.93.102-.243-.515 2.094-1.66 1.997-2.011-.146-.522-2.492-2.17-2.322-2.354.185-.199 1.39 2.832 1.892 3.034.3.119 1.225-2.735 1.601-2.502.294.178-.254 3.255.124 3.497.32.205 1.615-2.372 1.948-2.151.302.196-.367 3.173-.006 3.403.326.205 1.643-2.348 1.967-2.149.305.188-.336 3.148.019 3.353.336.192 1.599-2.401 1.923-2.224.307.167-.259 3.137.092 3.316.333.168 1.503-2.495 1.819-2.347.312.146-.15 3.14.204 3.292.336.145 1.401-2.584 1.719-2.458.314.123-.037 3.134.316 3.259.35.124 1.311-2.666 1.641-2.561.312.1.078 3.122.426 3.22.329.092 1.149-2.764 1.457-2.688z" fill="#B8CE64"/><g fill="#91B026"><path d="M82.84-14.305c-.048-.039-.137.138-.248.416.182-.221.293-.381.248-.416zM81.14-12.036c-.018.106.212.247.514.405.284-.373.676-1.602.938-2.258-.464.564-1.401 1.53-1.452 1.853zM54.98-1.975c-.232-.141-.395-.215-.411-.151-.019.068.152.113.411.151zM56.922-.926l.076-.199c.014-.131.017-.319.014-.532-.348-.193-1.43-.234-2.031-.318.596.355 1.659 1.13 1.941 1.049zM56.998-1.125c-.013.115-.036.187-.074.198l-.002.001c-.274.699-.746 1.693-.508 1.852.277.184 1.732-1.792 2.067-1.629.285.137-.303 2.565.059 2.703.325.125 1.392-2.132 1.732-2.036.311.088.08 2.598.447 2.675.345.073 1.116-2.333 1.461-2.287.323.043.381 2.568.752 2.594.35.024.859-2.469 1.198-2.469.32 0 .619 2.5.978 2.48.354-.021.626-2.559.964-2.601.319-.04.844 2.405 1.195 2.34.347-.062.388-2.614.716-2.695.324-.08 1.072 2.281 1.426 2.171.335-.104.146-2.635.457-2.75.297-.109 1.219 2.153 1.537 2.016.36-.156-.013-2.657.31-2.82.309-.151 1.442 1.967 1.763 1.784.328-.189-.279-2.609.011-2.796.3-.193 1.62 1.764 1.928 1.543.315-.232-.5-2.55-.225-2.774.287-.23 1.784 1.531 2.072 1.271.3-.271-.727-2.457-.47-2.713.268-.267 1.933 1.269 2.196.973.276-.31-.962-2.316-.732-2.603.244-.303 2.066.96 2.297.635.245-.348-1.214-2.11-1.018-2.418l2.367.246c.202-.374-1.5-1.778-1.355-2.092.173-.376 2.31.016 2.427-.332.1-.301-.743-.669-1.319-.973l-.095.096c-.238.143-1.264-2.082-1.553-1.838-.226.189.509 2.651.22 2.904-.245.215-1.552-1.728-1.806-1.499-.23.208.595 2.567.318 2.807-.25.218-1.572-1.703-1.821-1.493-.234.197.567 2.547.293 2.768-.259.207-1.541-1.754-1.793-1.562-.238.181.502 2.552.229 2.748-.259.187-1.468-1.844-1.717-1.676-.243.165.414 2.569.135 2.747-.264.165-1.394-1.937-1.644-1.787-.248.147.317 2.582.038 2.735-.277.153-1.328-2.015-1.589-1.881-.247.126.223 2.587-.057 2.718-.264.123-1.203-2.118-1.45-2.01-.279.119.064 2.616-.239 2.734-.29.113-1.149-2.183-1.412-2.09-.27.093-.018 2.603-.31 2.695-.3.094-1.067-2.254-1.338-2.18-.279.076-.135 2.598-.433 2.67-.31.073-.988-2.321-1.266-2.264-.286.059-.24 2.584-.545 2.637-.318.056-.916-2.379-1.197-2.342-.295.043-.332 2.568-.64 2.602-.324.038-.863-2.428-1.146-2.404-.301.025-.382 2.549-.687 2.571-.329.023-.854-2.468-1.129-2.455-.302.017-.337 2.546-.624 2.566-.346.023-1.008-2.473-1.269-2.446-.218.021-.133 1.133-.119 1.904l.067.05c.057.053.01.235-.078.481z"/></g><path d="M54.028-2.601c0-1.584.735-2.871 1.642-2.871.907 0 1.642 1.286 1.642 2.871 0 1.587-.734 2.875-1.642 2.875-.906-.001-1.642-1.288-1.642-2.875zM48.866-.941c0-1.485.868-2.687 1.939-2.687 1.072 0 1.941 1.202 1.941 2.687 0 1.484-.869 2.688-1.941 2.688-1.071 0-1.939-1.204-1.939-2.688zM52.308-.275c0-1.587.667-2.872 1.491-2.872.825 0 1.493 1.284 1.493 2.872 0 1.586-.668 2.872-1.493 2.872-.824-.001-1.491-1.286-1.491-2.872z" fill="#CB947F"/><path fill="#513F22" d="M47.112-59.952l-33.642-2.883-.399 25.465 32.945 4.363z"/><path fill="#B89178" d="M-54.53 12.125l-11.953 1.122-3.363-1.495.018-.036 14.828-1.945z"/><path fill="#755A32" d="M-69.828 11.716l1.476-2.955 12.702-2.241.65 3.251z"/><path stroke="#755A32" stroke-width="2.615" stroke-linecap="round" stroke-linejoin="round" fill="none" d="M14.955-53.269l11.581 15.321"/><path fill="#B89178" d="M51.565-33.465l1.868-26.531-6.351-1.121-2.241.747-.747 25.037z"/><path fill="#E08D28" d="M51.54-29.351l-18.305 53.954-24.656-60.681z"/><path d="M61.278-34.772l-10.833.186-21.295 54.329 5.605 10.464c0-.001 29.139-59.748 26.523-64.979z" fill="#A74E49"/><path d="M50.445-34.586l-38.854-6.352.748 5.605 36.236 6.353c.001 0 7.1-2.99 1.87-5.606z" fill="#A8815F"/><path d="M45.962-30.102l-38.852-6.352.747 5.605 36.236 6.354c.001-.001 7.098-2.991 1.869-5.607z" fill="#B89178"/><path fill="#9E7F66" d="M4.868-42.432l1.868-24.664 8.966 1.12-1.494 26.907z"/><path d="M-69.846-37.201s6.351-11.211 3.363-22.048c22.04-1.868 48.563-9.715 74.341-8.22-4.11 17.563-1.121 27.277-1.121 27.277l-76.583 2.991z" fill="#CC7929"/><path stroke="#755A32" stroke-width="2.615" stroke-linecap="round" stroke-linejoin="round" fill="none" d="M6.736-67.096l-1.494 22.795"/><path stroke="#9E7F66" stroke-width="2.615" stroke-linecap="round" stroke-linejoin="round" fill="none" d="M3.747-67.469l-1.493 23.542"/><path stroke="#755A32" stroke-width="2.615" stroke-linecap="round" stroke-linejoin="round" fill="none" d="M.759-67.096l-1.867 23.169M-2.323-43.822l-27.443-20.623"/><path stroke="#9E7F66" stroke-width="2.615" stroke-linecap="round" stroke-linejoin="round" fill="none" d="M-26.902-65.127l25.135 18.239"/><path stroke="#B89178" stroke-width="2.615" stroke-linecap="round" stroke-linejoin="round" fill="none" d="M-1.628-49.814l-21.896-15.938"/><path stroke="#755A32" stroke-width="2.615" stroke-linecap="round" stroke-linejoin="round" fill="none" d="M-1.209-52.88l-19.062-13.248"/><path stroke="#9E7F66" stroke-width="2.615" stroke-linecap="round" stroke-linejoin="round" fill="none" d="M-16.531-66.675l15.601-.975"/><path stroke="#755A32" stroke-width="2.615" stroke-linecap="round" stroke-linejoin="round" fill="none" d="M-13.328-64.165l12.259-.28"/><path stroke="#9E7F66" stroke-width="2.615" stroke-linecap="round" stroke-linejoin="round" fill="none" d="M-9.985-61.38h9.055"/><path stroke="#755A32" stroke-width="2.615" stroke-linecap="round" stroke-linejoin="round" fill="none" d="M-68.31-39.176l1.827-20.073"/><path stroke="#9E7F66" stroke-width="2.615" stroke-linecap="round" stroke-linejoin="round" fill="none" d="M-65.903-38.875l1.505-20.768"/><path stroke="#755A32" stroke-width="2.615" stroke-linecap="round" stroke-linejoin="round" fill="none" d="M-62.594-39.478l-.451-20.915M-46.799-62.048M-61.841-46.399"/><path stroke="#9E7F66" stroke-width="2.615" stroke-linecap="round" stroke-linejoin="round" fill="none" d="M-61.691-42.335l17.299-18.66"/><path stroke="#755A32" stroke-width="2.615" stroke-linecap="round" stroke-linejoin="round" fill="none" d="M-61.24-39.478l16.096-17.605"/><path stroke="#9E7F66" stroke-width="2.615" stroke-linecap="round" stroke-linejoin="round" fill="none" d="M-60.905-59.794l10.229-1.504"/><path stroke="#755A32" stroke-width="2.615" stroke-linecap="round" stroke-linejoin="round" fill="none" d="M-61.691-56.18l8.725-1.354"/><path stroke="#9E7F66" stroke-width="2.615" stroke-linecap="round" stroke-linejoin="round" fill="none" d="M-61.691-52.417l7.07-1.656"/><path stroke="#755A32" stroke-width="2.615" stroke-linecap="round" stroke-linejoin="round" fill="none" d="M-61.841-46.399l15.042-15.649"/><path d="M-55.081 16.22l-.04.062.04-.062zM41.034 27.431c-2.041-2.311-3.954-4.603-5.282-6.22.735-1.159 18.084-37.2 24.951-55.821 6.918 2.346-10.158 48.475-19.669 62.041z" fill="#76310D"/><path fill="#EAC7A4" d="M57.509 26.293l-3.667-3.078-.215-3.127 5.058-3.382.526.107 1.637 6.666-3.103 2.87z"/><path fill="#B89178" d="M53.842 23.215l3.667 3.078-25.691-6.891-1.46-4.613 23.336 6.277z"/><path fill="#755A32" d="M53.694 21.066l-23.336-6.277-1.535-4.853 29.862 6.77-5.058 3.382z"/><path d="M35.576 33.602c-3.847.406-54.051-26.407-54.595-25.132 1.015-2.132-34.773 6.495-36.062 7.749.431-2.061-23.221-50.828-22.919-52.654 3.134-4.068 88.719-12.002 89.596-5.35 4.209 26.496 24.053 63.643 24.134 63.046l.022-.052c1.328 1.617 3.241 3.909 5.282 6.22-2.597 3.707-4.632 6.085-5.458 6.173z" fill="#76310D"/><path fill="#B98765" d="M33.354 32.542l-53.538-25.863-34.399 7.27-2.423-7.27 2.423 3.635.483-1.453 2.181 2.18-1.211-6.3 5.814 6.3-1.696-4.847 4.361 4.847v-3.636l2.665 2.667.968-1.454 1.696 1.212 19.381-4.362 1.454-3.151 1.937 2.909-1.454-8.24 6.3 9.208-.243-3.15 3.15 4.361 2.421-3.392 2.161 4.945 26.878 17.436 1.485.818.883-.166-.639-2.984 4.844 6.301-4.36-12.602z"/><path d="M-37.733-1.775c-.544 10.351-.573 26.497-.568 31.554-5.811-.021-11.359-2.056-11.287-7.335l1.36-21.264.015-.024c2.563.128 6.029-.501 10.48-2.931z" fill="#CC8653"/><path d="M-37.733-1.775l.252-.136s1.328 3.897 10.894 3.979c.181 2.272 1.196 16.75.667 23.826-1.797 2.314-7.194 3.901-12.382 3.884-.005-5.056.025-21.202.569-31.553z" fill="#A76A3F"/><path d="M-35.169-35.35c.816 6.36-.544 18.355-1.905 26.171-.15.866-.282 2.041-.399 3.44-.993.627-4.702 2.853-9.094 4.067l.244-.42s-3.01-3.608-2.874-7.425c.136-3.816 3.553-30.377 3.553-30.377s-4.897-2.726-5.033-5.452c-.136-2.726 5.441-7.089 5.441-7.089s-.688-17.852.407-18.718c1.097-.865 2.372-1.852 7.421-2.182-1.762 12.88 1.478 32.058 2.239 37.985z" fill="#CC8653"/><path d="M-21.022-43.348c0 3.09-6.394 5.271-6.394 5.271s2.514 29.983 2.027 31.863c-.486 1.88-2.164 3.576-3.795 5.575 0 0 .484.181 1.035.523-3.664-1.035-7.335-2.796-9.062-5.793l-.264.168c.117-1.399.249-2.574.399-3.44 1.361-7.816 1.905-19.557 1.089-25.919-.762-5.927-3.184-25.357-1.422-38.237 3.159-.208 11.957.807 12.712 2 .754 1.195-.273 15.993-1.633 19.99.002.002 5.308 4.911 5.308 7.999z" fill="#A76A3F"/><path d="M-37.481-1.911l-.252.136c.076-1.45.162-2.788.26-3.964l.264-.168c1.727 2.997 5.397 4.758 9.062 5.793.685.431 1.474 1.112 1.548 2.021l.014.162c-9.568-.082-10.896-3.98-10.896-3.98z" fill="#703431"/><path d="M-37.733-1.775c-4.45 2.43-7.917 3.059-10.481 2.93l1.936-3.368c4.391-1.214 7.812-2.9 8.805-3.527-.098 1.178-.184 2.515-.26 3.965z" fill="#9D5629"/><path d="M-24.486-43.789c-7.719 4.568-11.772-1.012-11.772-1.012-6.946 4.79-10.66.582-11.755-1.051 11.877-10.936 21.348-.669 23.527 2.063z" fill="#633619"/><path d="M-42.948-41.712l.301.024-.14.522-.161-.546zM-36.831-43.518l.573-.374s.181.245.532.591l-.532 1.954-.573-2.171zM-39.809-42.078l.571-.201-.285 1.113-.286-.912zM-28.974-41.18l.249-.037-.052.414-.197-.377zM-33.245-41.664l.407.157-.155.885-.252-1.042z" fill="none"/><path d="M-34.353-48.074l1.34 5.767c-.894-.406-1.782-2.023-2.245-2.444l.905-3.323zM-27.823-46.982l2.288 4.209c-.804.34-2.092-.248-2.801-.112l.513-4.097zM-42.139-43.312l1.12-4.215 1.608 4.86c-.85.244-2.015-.63-2.728-.645zM-37.618-48.254l1.06 3.835c-.64.394-.747-.182-2.146.395l1.086-4.23zM-32.414-43.098l.781-4.43 2.86 5.685c-1.258.125-2.723-.958-3.641-1.255zM-44.011-46.982l1.438 4.776c-1.125-.165-2.435-1.785-3.18-2.315l1.742-2.461z"/><path d="M-34.625-47.344l1.131 4.661c-.894-.406-1.573-.921-2.034-1.341l.903-3.32zM-28.096-46.255l1.761 3.399c-.806.338-1.562.566-2.273.7l.512-4.099z" fill="#D99865"/><path d="M-42.411-42.584l1.12-4.215 1.221 3.889c-.849.244-1.628.341-2.341.326zM-37.89-47.526l.854 3.231c-.68.416-1.325.746-1.941 1l1.087-4.231z" fill="#EFB68A"/><path d="M-32.685-42.371l.779-4.429 2.484 4.761c-1.259.125-2.347-.034-3.263-.332z" fill="#D99865"/><path d="M-44.283-46.255l1.06 3.603c-1.126-.166-2.056-.611-2.801-1.14l1.741-2.463z" fill="#EFB68A"/><path d="M-48.364-45.528l.352-.324c.364.543 1.021 1.372 1.988 2.06l-.417.59c-1.306-1.076-1.923-2.326-1.923-2.326zM-36.258-43.892l-.573.374-.205-.777c.255-.157.514-.322.778-.506 0 0 .246.338.729.776l-.197.724c-.351-.345-.532-.591-.532-.591zM-28.974-41.18l-.447-.858c.264-.025.535-.065.812-.118l-.116.939-.249.037zM-33.245-41.664l-.249-1.02c.252.116.521.221.809.313l-.153.864-.407-.157zM-39.809-42.078l-.262-.833c.353-.102.718-.229 1.094-.385l-.261 1.016-.571.202zM-25.949-42.111l-.386-.746c.591-.249 1.205-.553 1.849-.933.309.389.471.624.471.624-.673.428-1.316.772-1.934 1.055zM-42.948-41.712l-.275-.94c.261.039.532.061.812.068l-.236.896-.301-.024zM-32.838-41.506l.153-.864c.916.298 2.004.457 3.264.332l.447.858c-1.522.226-2.812.04-3.864-.326zM-28.725-41.217l.116-.939c.711-.134 1.468-.361 2.273-.7l.386.746c-.994.452-1.922.741-2.775.893zM-39.237-42.279l.261-1.016c.615-.254 1.261-.584 1.941-1l.205.777c-.853.541-1.655.95-2.407 1.239zM-42.647-41.688l.236-.896c.713.016 1.492-.082 2.341-.326l.262.833c-1.049.333-1.994.438-2.839.389zM-35.726-43.301l.197-.724c.461.42 1.141.935 2.034 1.341l.249 1.02c-1.159-.48-1.989-1.154-2.48-1.637zM-46.441-43.202l.417-.59c.745.528 1.675.974 2.801 1.14l.275.94c-1.476-.154-2.634-.782-3.493-1.49z"/><path d="M-37.487-52.309l.095.604-.272.019.177-.623zM-32.349-51.363l.253.604-.325-.13.072-.474zM-34.652-52.191l.15.7-.321-.059.171-.641zM-41.12-51.48l.115.503-.302.107.187-.61z" fill="none"/><path d="M-36.151-45.304l-.769-5.474c.695.009 1.371.077 2.027.196l-1.258 5.278zM-39.341-44.507l-1.165-5.747c.942-.286 1.861-.446 2.754-.502l-1.589 6.249zM-42.796-44.772l-.881-4.06c.774-.462 1.538-.828 2.288-1.118l-1.407 5.178zM-32.963-45.304l-.964-5.061c.542.144 1.071.321 1.582.527l-.618 4.534zM-29.241-44.242l-1.891-5.045c.987.499 1.899 1.089 2.726 1.71l-.835 3.335z"/><path d="M-36.424-45.562l-.77-4.88c.694.006 1.372.067 2.028.174l-1.258 4.706z" fill="#D99865"/><path d="M-39.613-44.852l-1.166-5.126c.943-.256 1.862-.396 2.755-.446l-1.589 5.572zM-43.068-45.088l-.881-3.621c.774-.411 1.537-.739 2.289-.996l-1.408 4.617z" fill="#EFB68A"/><path d="M-33.235-45.562l-.964-4.513c.543.127 1.071.287 1.582.47l-.618 4.043zM-29.513-44.614l-1.892-4.5c.986.445 1.898.97 2.727 1.525l-.835 2.975z" fill="#D99865"/><path d="M-32.096-50.759l.691 1.645c-.393-.178-.798-.342-1.213-.491l.196-1.284.326.13zM-41.005-50.977l.226 1c-.291.079-.586.172-.881.272l.354-1.165.301-.107zM-48.315-45.551c-.234-.352.309-.876.309-.876 1.327-1.265 2.62-2.262 3.874-3.035l.184.753c-1.423.757-2.883 1.791-4.367 3.158zM-37.393-51.705l.199 1.262c-.274-.004-.552.003-.831.019l.359-1.262.273-.019zM-23.993-43.339c-.729-.916-2.375-2.7-4.684-4.25l.281-1.005c2.681 2.061 4.212 4.382 4.212 4.382-.162.101.348.782.191.873zM-34.502-51.491l.303 1.416c-.316-.076-.64-.141-.966-.193l.342-1.281.321.058zM-31.404-49.114l-.691-1.645c1.398.574 2.639 1.348 3.699 2.164l-.281 1.005c-.829-.555-1.741-1.079-2.727-1.524zM-34.823-51.549l-.342 1.281c-.656-.106-1.334-.168-2.028-.174l-.199-1.262c.892-.045 1.749.016 2.569.155zM-37.665-51.686l-.359 1.262c-.893.05-1.812.19-2.755.446l-.226-1c1.157-.407 2.274-.633 3.34-.708zM-41.66-49.705c-.752.257-1.515.585-2.289.996l-.184-.753c.967-.599 1.911-1.061 2.826-1.408l-.353 1.165zM-32.421-50.889l-.196 1.284c-.511-.183-1.039-.343-1.582-.47l-.303-1.416c.726.145 1.419.35 2.081.602z" fill="#997255"/><path d="M-36.731-40.639s-3.576 2.826-8.881.827c0 0 .802 3.943 9.219 1.312 0 0 2.856 2.605 8.978.424-.001 0-5.235 1.254-9.316-2.563" opacity=".72" fill="#CD8856"/><path d="M-45.235-52.435s2.875-3.308 7.659-3.071c4.784.238 11.248 4.161 11.248 4.161s-5.577-6.291-11.336-5.817c-5.759.473-7.571 4.727-7.571 4.727z" opacity=".67" fill="#633619"/><path d="M-38.133-9.136c.222.216.443.435.674.674 0 0-11.615 10.631-11.131-.695.364 7.823 8.104 1.984 10.457.021z" fill="#D9A57C"/><path d="M-48.589-9.186l-.001.028c-.018-.394-.02-.818.001-1.284 0 0 1.529-9 10.762.566 0 0 .705.908.281 1.262-8.648-8.449-11.043-.572-11.043-.572z" opacity=".67" fill="#633619"/><path d="M-38.133-9.136c-2.354 1.963-10.093 7.802-10.457-.021l.001-.028c0-.001 1.808-8.401 10.456.049z" opacity=".72" fill="#CD8856"/><path d="M-38.133-9.136c-2.354 1.963-9.773 8.777-10.457-.021l.001-.028c0-.001 1.808-8.401 10.456.049z" fill="#CD8856"/><path d="M-39.584-9.186s-7.288 6.498-6.963.157c0 0 1.026-5.491 6.963-.157z" fill="#633619"/><path d="M-42.375-9.072c0-1.14-.601-2.063-1.341-2.063s-1.341.923-1.341 2.063c0 1.141.6 2.063 1.341 2.063.74.001 1.341-.922 1.341-2.063z" fill="#AE8880"/><path d="M-42.487-9.302c0-1.043-.55-1.891-1.229-1.891s-1.229.848-1.229 1.891c0 1.045.55 1.893 1.229 1.893s1.229-.848 1.229-1.893z" fill="#CD8856"/><path d="M-36.678-9.041c-.227.216-.454.434-.69.672 0 0 11.898 10.633 11.4-.693-.373 7.824-8.299 1.984-10.71.021z" fill="#B48A68"/><path d="M-25.968-9.089v.027c.021-.393.021-.82 0-1.284 0 0-1.566-9.001-11.023.566 0 0-.722.907-.288 1.262 8.859-8.45 11.311-.571 11.311-.571z" opacity=".67" fill="#5B2F14"/><path d="M-36.678-9.041c2.411 1.963 10.337 7.802 10.71-.021v-.027s-1.85-8.401-10.71.048z" opacity=".72" fill="#CD8856"/><path d="M-36.678-9.041c2.411 1.963 10.012 8.776 10.71-.021v-.027s-1.85-8.401-10.71.048z" fill="#A26D45"/><path d="M-35.245-9.091s7.29 6.498 6.964.158c0 0-1.027-5.491-6.964-.158z" fill="#3A1A08"/><path d="M-32.453-8.976c0-1.141.601-2.065 1.341-2.065.739 0 1.341.924 1.341 2.065 0 1.14-.601 2.063-1.341 2.063-.741 0-1.341-.923-1.341-2.063z" fill="#7C4E49"/><path d="M-32.34-9.206c0-1.045.549-1.893 1.228-1.893.679 0 1.229.848 1.229 1.893s-.55 1.891-1.229 1.891-1.228-.846-1.228-1.891z" fill="#B0754B"/><path fill="#CD8855" d="M-37.343-9.51l-3.132-18.812-2.81-2.787.278-.143 6.16.749.314-.018-.692 20.43z"/><path fill="#C67943" d="M-29.773-30.625l-3.719 2.182-3.733 18.352.692-20.43 6.419-.338z"/><path fill="#985328" d="M-43.007-31.252l7.067-3.614.042.029-.955 4.334z"/><path fill="#7E3A14" d="M-36.847-30.503h-.006l.955-4.334 5.784 3.978z"/><path d="M-36.197 4.864l-.043-.385c.699.493 4.463 3.06 7.758 3.45.578.206 1.088.374 1.481.5-3.855.358-9.196-3.565-9.196-3.565z" fill="#BF6830"/><path d="M-36.43 2.762c.756 2.275 5.155 4.172 7.947 5.167-3.295-.39-7.059-2.957-7.758-3.45l-.189-1.717z" fill="#703431"/><path d="M-36.197 8.582l-.043-.385c.699.493 4.463 3.06 7.758 3.45.578.206 1.088.374 1.481.5-3.855.357-9.196-3.565-9.196-3.565z" fill="#BF6830"/><path d="M-36.43 6.479c.756 2.275 5.155 4.17 7.947 5.167-3.295-.39-7.059-2.957-7.758-3.45l-.189-1.717z" fill="#703431"/><path d="M-36.197 12.299l-.043-.387c.699.496 4.463 3.06 7.758 3.452.578.206 1.088.374 1.481.499-3.855.359-9.196-3.564-9.196-3.564z" fill="#BF6830"/><path d="M-36.43 10.197c.756 2.275 5.155 4.169 7.947 5.167-3.295-.392-7.059-2.957-7.758-3.452l-.189-1.715z" fill="#703431"/><path d="M-27.001 19.58c-3.855.358-9.196-3.563-9.196-3.563l-.043-.385c.699.491 4.463 3.058 7.758 3.45.578.206 1.087.374 1.481.498z" fill="#BF6830"/><path d="M-28.482 19.081c-3.295-.392-7.059-2.958-7.758-3.45l-.189-1.717c.755 2.276 5.155 4.171 7.947 5.167z" fill="#703431"/><path d="M-39.161 4.864l.041-.385c-.697.493-4.462 3.06-7.757 3.45-.578.206-1.088.374-1.481.5 3.856.358 9.197-3.565 9.197-3.565z" fill="#D19262"/><path d="M-38.929 2.762c-.756 2.275-5.155 4.172-7.948 5.167 3.295-.39 7.06-2.957 7.757-3.45l.191-1.717z" fill="#703431"/><path d="M-39.161 8.582l.041-.385c-.697.493-4.462 3.06-7.757 3.45-.578.206-1.088.374-1.481.5 3.856.357 9.197-3.565 9.197-3.565z" fill="#D19262"/><path d="M-38.929 6.479c-.756 2.275-5.155 4.17-7.948 5.167 3.295-.39 7.06-2.957 7.757-3.45l.191-1.717z" fill="#703431"/><path d="M-39.161 12.299l.041-.387c-.697.496-4.462 3.06-7.757 3.452-.578.206-1.088.374-1.481.499 3.856.359 9.197-3.564 9.197-3.564z" fill="#D19262"/><path d="M-38.929 10.197c-.756 2.275-5.155 4.169-7.948 5.167 3.295-.392 7.06-2.957 7.757-3.452l.191-1.715z" fill="#703431"/><path d="M-48.358 19.58c3.856.358 9.197-3.563 9.197-3.563l.041-.385c-.697.491-4.462 3.058-7.757 3.45-.578.206-1.088.374-1.481.498z" fill="#D19262"/><path d="M-46.877 19.081c3.295-.392 7.06-2.958 7.757-3.45l.191-1.717c-.756 2.276-5.155 4.171-7.948 5.167z" fill="#703431"/><path d="M-47.784-20.277s4.451-1.7 9.255 7.928c0 0-2.896-13.877-9.396-8.212" fill="#985328"/><path d="M-35.704-13.104s2.826-8.023 8.974-6.701c0 0-7.561-5.57-8.974 6.701z" fill="#622D2A"/><path fill="#985328" d="M-45.825 28.258l.181-6.662.273 6.905"/><path fill="#985328" d="M-42.973 29.294l.29-9.041.107-2.932.105-.954.053-3.461-.343 16.388z"/><path d="M-39.423 29.712c-.063-4.593.192-9.185.637-13.692" fill="none"/><path d="M-39.27 29.709l.039-.461-.056-.309-.055-.345-.021-.462.067-.384.071-.5-.021-.5-.078-.733-.08-.619-.196-.97.197-.726.041-.578.082-.497-.024-.503-.034-.774.035-.461s.088-.766.127-.88c.039-.112.097-.881.097-.881l.135-.57-.095-.78.15-.375c.075-.185.195-.56.236-.711.042-.15.049-.652.049-.652l-.007.502-.06.806-.161.524.087.472-.065.458-.096.456-.068.497-.031.422.03.426-.079.227-.048.229-.053.305.01.271.03.425.035.349-.054.305-.043.307-.102.497-.04.498-.069.461.115.35.088.271.078.695-.005.268.02.578-.039.461-.008.422-.008.461-.006.307.02.576-.137.845z" fill="#8B4016"/><path d="M-42.764-71.846c-.247 3.628-.823 7.477-.411 11.214" fill="none"/><path d="M-42.917-71.856l-.061.375.04.256.038.287-.001.38-.087.31-.095.405-.003.41.043.606.05.511.151.802-.231.584-.068.469-.084.406.046.412.068.634-.013.377s-.054.629-.088.723c-.043.094-.048.725-.035.724l-.066.476.186.62-.106.324c-.054.162-.129.485-.151.615-.025.131.027.54.027.54l-.053-.409-.033-.668.1-.452-.142-.375.011-.382.041-.382.031-.411.013-.349-.049-.348.067-.19.038-.187.04-.252-.022-.223-.049-.35-.051-.29.04-.25.043-.251.125-.403.063-.407.092-.372-.1-.294-.073-.226-.045-.574.017-.222.007-.474.062-.376.029-.345.03-.377.021-.25.008-.473.179-.684z" fill="#8B4016"/><path d="M-48.33 26.191s.088-1.472.175-1.784c.088-.31.029-.774.029-.774l-.116-.854.116-.695.028-1.24.145-2.249-.114-3.683.174-.776.116-1.044.086-1.59.117-1.705v2.636l-.117 1.007-.173 1.279.087 1.124-.029 1.125.058 1.084.029 1.163s-.087 1.046-.058 1.239c.028.196-.087.893-.087 1.047l-.029.892s-.146.425-.087.619c.058.193.145.776.145.776s-.203 1.24-.203 1.355c0 .117-.059.582-.059.582l-.028.464v.311" fill="#50260D"/><path fill="#985328" d="M-47.446 7.541l.17-3.499.034-.864.102-.681.068-1.272h.17l-.034 1-.034.682-.068.997-.136 1.955"/><path d="M-46.442-15.019l1.332-21.522c0-.001-.786 18.933-1.332 21.522zM-43.959-18.419s.182-8.414.303-8.9c.121-.485 0 7.364-.303 8.9zM-43.232-37.838l-.303 8.092s.545-7.282.303-8.092zM-26.641-13.402l-1.21-16.828s.848 15.292 1.21 16.828zM-30.455-17.933l.183-11.246s-.546 10.194-.183 11.246zM-45.412 5.612l.12-4.612.057-.217.671-2.615zM-35.359-1.426v4.369s.484-3.318 0-4.369zM-30.043-.135l-.242-3.56s.545 2.184.242 3.56zM-43.898-7.333s-.061-2.021.061-2.588c.12-.567.12 2.103-.061 2.588zM-34.831-3.942s-.242-2.104.06-2.67c0 0 .122 2.183-.06 2.67zM-31.727-7.495l-.121-2.914c0 .001.485 1.943.121 2.914zM-38.341-14.139s-.181-5.577-.395-6.538c-.212-.959.395 6.538.395 6.538zM-36.068-20.501s.6-5.201.867-5.792c.266-.593-.867 5.792-.867 5.792zM-38.995-31.688l-.361.892.301 4.206-.059-3.964zM-30.272 26.245s.061-5.259.303-5.746c.241-.484-.303 5.746-.303 5.746zM-28.819 17.345s.606-12.622.364-13.351c-.243-.728-.364 13.351-.364 13.351zM-28.847-35.776l-.163 11.923s-.064-11.271.163-11.923zM-31.713-37.257l.912-.696-.131-2.392-.032 2.348zM-40.377-37.866l-1.629-1.217.033-1.786.196 1.698zM-40.052-59.581v4.265l-.359.13v2.177l-.26-2.089.359-.347zM-33.147-49.745l-.293-1.48v-2.394l.195 2.394zM-22.887-40.52v-3.568l.163 3.437M-31.975-51.181l-.032-2.829.229.085M-31.519-72.941l-.39 16.058.586-16.144M-34.124-73.072l.066 10.836.162-10.967M-26.925-71.81l-.229 5.614v-5.83M-44.123-71.417l-.293 13.446.488-13.621M-40.346-72.81l-.519 13.621.65-13.709M-46.273-51.139l.098 2.524.032-2.654M-49.693-47.483l-.13 3.569.261-3.917M-34.176 29.367l.622-14.124.041 13.966" fill="#633619"/><path fill="#633619" d="M-32.508-1.42l.711 2.729-.266 4.155-.089-4.155zM-45.549-6.279l-.211 1.406.527.984.035 1.267-.351 1.125.561-1.125-.034-1.172-.492-.985zM-40.566-6.606l.139 2.436-.946 4.173-.036 4.267.246-4.362.947-4.218"/><path stroke="#9E7F66" stroke-width="2.615" stroke-linecap="round" stroke-linejoin="round" fill="none" d="M14.955-48.784l6.724 9.34"/><path stroke="#755A32" stroke-width="2.615" stroke-linecap="round" stroke-linejoin="round" fill="none" d="M35.502-36.827l10.46-8.596"/><path stroke="#9E7F66" stroke-width="2.615" stroke-linecap="round" stroke-linejoin="round" fill="none" d="M38.116-35.333l7.846-6.726"/><path stroke="#B89178" stroke-width="2.615" stroke-linecap="round" stroke-linejoin="round" fill="none" d="M23.921-43.554l14.942 1.869M26.16-39.816l10.089 1.494"/><path stroke="#755A32" stroke-width="2.615" stroke-linecap="round" stroke-linejoin="round" fill="none" d="M-1.488-58.872l-3.9.418"/><path d="M31.13-4.882c-.306.348-.496.537-.496.537s-5.021-4.983-5.021-11.132c0-6.148 5.021-11.132 5.021-11.132s.19.188.496.537c-1.267 1.444-4.526 5.641-4.526 10.595 0 4.954 3.259 9.152 4.526 10.595z" fill="#755A32"/><path d="M31.13-4.882c-1.267-1.443-4.526-5.642-4.526-10.595 0-4.955 3.26-9.151 4.526-10.595 1.266 1.444 4.525 5.641 4.525 10.595 0 4.954-3.259 9.152-4.525 10.595z" fill="#A74E49"/><path d="M30.964-14.54c0-.639-1.011-1.159-2.258-1.159s-2.26.519-2.26 1.159c0 .639 1.013 1.156 2.26 1.156 1.247.001 2.258-.517 2.258-1.156z" fill="#E08D28"/><path d="M30.083-14.54c0-.391-.617-.707-1.377-.707-.761 0-1.378.316-1.378.707 0 .388.617.705 1.378.705.76 0 1.377-.317 1.377-.705z" fill="#A74E49"/><path d="M35.812-14.54c0-.639-1.011-1.159-2.259-1.159-1.247 0-2.259.519-2.259 1.159 0 .639 1.012 1.156 2.259 1.156 1.249.001 2.259-.517 2.259-1.156z" fill="#E08D28"/><path d="M35.168-14.54c0-.457-.723-.828-1.614-.828-.892 0-1.613.371-1.613.828 0 .456.722.826 1.613.826.891.001 1.614-.369 1.614-.826z" fill="#A74E49"/><path fill="#E08D28" d="M31.405-15.366l1.653-4.079-.11-.66-3.306.22-.11.661zM28.65-21.98s.882.992 2.534.992l2.093-1.433-4.627.441z"/><path fill="#EFB801" d="M28.65-21.98l2.314-1.543 2.313 1.102zM30.192-12.061l-2.533 1.103.329 1.212zM30.854-11.289l-.13.186c-.522.613-2.405 2.24-2.405 2.24l.661 1.213"/><path fill="#EFB801" d="M30.964-5.447l-.772-.991.882-3.968.331 4.188zM31.625-10.517l1.213 2.976.66-1.542z"/><path fill="#B98765" d="M-55.069 7.405l-18.895-39.013 18.653 35.864-11.87-27.141 13.808 25.687-2.18-1.454 1.696 6.543"/></symbol><use xlink:href="#a" width="165.96" height="157.608" x="-82.979" y="-78.804" transform="matrix(1 0 0 -1 101.388 89.795)" overflow="visible"/></svg>