<?xml version="1.0" encoding="utf-8"?>
<!-- Generator: Adobe Illustrator 17.0.0, SVG Export Plug-In . SVG Version: 6.00 Build 0)  -->
<!DOCTYPE svg PUBLIC "-//W3C//DTD SVG 1.1//EN" "http://www.w3.org/Graphics/SVG/1.1/DTD/svg11.dtd">
<svg version="1.1" id="Ebene_1" xmlns="http://www.w3.org/2000/svg" xmlns:xlink="http://www.w3.org/1999/xlink" x="0px" y="0px"
	 width="200px" height="200px" viewBox="0 0 200 200" style="enable-background:new 0 0 200 200;" xml:space="preserve">
<symbol  id="Tiki-Hütte" viewBox="-82.979 -78.804 165.96 157.608">
	<path style="fill:#F5D4B0;" d="M-68.393-55.115c0,0-15.02,0-10.901-1.938c4.118-1.938,12.354-6.3,9.205-7.513
		c-3.149-1.211-31.977-8.725,8.479-12.843c40.457-4.119,77.521,1.939,74.131,4.605c-3.393,2.664-5.815,2.422,4.844,3.877
		c10.659,1.454,70.98,12.116,48.937,11.874C44.256-57.295-68.393-55.115-68.393-55.115z"/>
	<g>
		<g>
			<path style="fill:#A74E49;" d="M-0.861,42.904c-0.002,0.007-0.002,0.023-0.005,0.024C-0.872,42.929-0.869,42.92-0.861,42.904z"/>
			<path style="fill:#A74E49;" d="M-0.888,41.918c0.033-0.003,0.098,0.51,0.149,0.798c-0.056,0.08-0.104,0.151-0.123,0.188
				C-0.839,42.781-0.929,41.923-0.888,41.918z"/>
			<path style="fill:#A74E49;" d="M-0.701,41.898c0.029-0.003,0.076,0.313,0.122,0.59c-0.03,0.045-0.065,0.096-0.102,0.148
				C-0.696,42.337-0.732,41.902-0.701,41.898z"/>
			<path style="fill:#A74E49;" d="M9.374-23.034c-0.184,1.357,0.813,1.491,0.629,2.85c-0.192,1.414-1.188,1.279-1.381,2.694
				c-0.192,1.413,0.805,1.548,0.612,2.962c-0.194,1.429-1.191,1.294-1.386,2.723C7.66-10.41,8.656-10.275,8.467-8.881
				C8.28-7.506,7.284-7.642,7.097-6.266C6.903-4.843,7.9-4.708,7.706-3.284C7.515-1.869,6.519-2.004,6.325-0.589
				C6.134,0.826,7.13,0.961,6.938,2.375c-0.191,1.418-1.188,1.283-1.38,2.702C5.362,6.503,6.359,6.638,6.165,8.064
				c-0.195,1.434-1.19,1.299-1.387,2.733c-0.196,1.447,0.802,1.583,0.604,3.03c-0.191,1.415-1.187,1.278-1.38,2.691
				c-0.194,1.433,0.802,1.568,0.607,3c-0.191,1.405-1.187,1.27-1.378,2.673c-0.193,1.427,0.802,1.563,0.608,2.99
				c-0.189,1.406-1.187,1.27-1.377,2.675c-0.194,1.429,0.802,1.566,0.607,2.994c-0.191,1.413-1.189,1.276-1.38,2.688
				c-0.195,1.437,0.802,1.572,0.606,3.008c-0.193,1.42-1.189,1.286-1.383,2.708c-0.197,1.448,0.8,1.583,0.604,3.03
				c0,0-0.182-0.532-0.431-0.566L1.02,42.719v-1.007v1.007c-0.001,0-0.057-1.003-0.058-1.003c-0.065,0.007,0.045,1.007-0.021,1.015
				c-0.061,0.007-0.171-0.995-0.233-0.988c-0.05,0.005,0.061,1.005,0.01,1.011c-0.042,0.006-0.152-0.995-0.195-0.991
				c-0.038,0.005,0.071,1.004,0.033,1.009c-0.034,0.003-0.144-0.998-0.178-0.995c-0.095,0.012,0.015,1.013-0.08,1.023
				c-0.082,0.009-0.191-0.992-0.273-0.983c-0.073,0.008,0.037,1.008-0.035,1.016c-0.067,0.008-0.178-0.993-0.243-0.985
				c-0.062,0.007,0.048,1.006-0.013,1.014c-0.057,0.006-0.166-0.995-0.224-0.989c-0.054,0.007,0.055,1.006,0.002,1.012
				c-0.022,0.002-0.056-0.186-0.09-0.399c0.042-0.062,0.072-0.11,0.07-0.122c-0.188-1.296-1.142-1.175-1.287-2.476
				c-0.145-1.316,0.854-1.426,0.708-2.741c-0.15-1.36-1.15-1.248-1.301-2.607c-0.157-1.418,0.842-1.529,0.687-2.947
				c-0.157-1.416-1.157-1.306-1.316-2.722c-0.151-1.368,0.849-1.479,0.697-2.85c-0.157-1.403-1.155-1.292-1.312-2.697
				c-0.159-1.442,0.84-1.554,0.68-2.997c-0.157-1.428-1.157-1.316-1.316-2.743c-0.156-1.419,0.844-1.53,0.685-2.949
				c-0.156-1.418-1.155-1.306-1.313-2.726c-0.157-1.42,0.843-1.531,0.685-2.954c-0.159-1.428-1.159-1.319-1.317-2.748
				c-0.159-1.439,0.841-1.55,0.681-2.989c-0.162-1.451-1.161-1.339-1.321-2.791C-6.33-0.984-5.331-1.097-5.488-2.514
				c-0.159-1.436-1.159-1.324-1.317-2.76c-0.156-1.408,0.843-1.52,0.687-2.929c-0.159-1.43-1.158-1.319-1.316-2.749
				c-0.157-1.411,0.843-1.522,0.685-2.93c-0.157-1.434-1.157-1.323-1.316-2.756c-0.157-1.416,0.843-1.527,0.686-2.943
				c-0.16-1.439-1.16-1.329-1.319-2.77c-0.146-1.32,0.7-1.513,0.699-2.67h18.597C10.267-24.223,9.526-24.151,9.374-23.034z"/>
			<path style="fill:#A74E49;" d="M-0.687,42.909C-0.7,42.91-0.718,42.83-0.738,42.717c0.02-0.027,0.038-0.053,0.058-0.081
				C-0.673,42.787-0.671,42.906-0.687,42.909z"/>
		</g>
		<g>
			<g>
				<path style="fill:#A8C541;" d="M2.151,46.592c-0.352-0.314-0.42-2.22-0.55-3.237c0.446,0.842,1.376,2.284,1.466,2.866
					c-0.241,0.146-0.458,0.27-0.623,0.337C2.353,46.571,2.255,46.583,2.151,46.592z"/>
				<path style="fill:#A8C541;" d="M1.401,42.718c0.09-0.021,0.148,0.241,0.2,0.638C1.408,42.991,1.305,42.738,1.401,42.718z"/>
				<path style="fill:#A8C541;" d="M40.264,71.485c0.422-0.039,0.705-0.039,0.703,0.046C40.966,71.614,40.684,71.577,40.264,71.485z
					"/>
				<path style="fill:#A8C541;" d="M36.819,71.766c-0.09-0.5-0.135-0.892,0-0.938c0.42-0.15,2.375,0.43,3.444,0.658
					C39.271,71.58,37.506,71.889,36.819,71.766z"/>
				<path style="fill:#A8C541;" d="M36.894,74.139c-0.505,0.078-1.986-2.973-2.576-2.949c-0.491,0.02-0.565,3.18-1.179,3.167
					c-0.559-0.012-1.283-3.207-1.856-3.257c-0.531-0.051-1.24,3.032-1.859,2.943c-0.581-0.084-0.777-3.307-1.347-3.422
					c-0.538-0.111-1.725,2.845-2.331,2.692c-0.577-0.147-0.318-3.348-0.869-3.518c-0.527-0.163-2.111,2.634-2.693,2.423
					c-0.56-0.201,0.113-3.334-0.412-3.554c-0.506-0.213-2.436,2.401-2.985,2.141c-0.532-0.252,0.522-3.283,0.03-3.546
					c-0.479-0.255-2.712,2.153-3.226,1.85c-0.499-0.298,0.912-3.193,0.455-3.494c-0.478-0.312-3.015,1.845-3.519,1.477
					c-0.446-0.324,1.321-3.039,0.93-3.352c-0.417-0.33-3.156,1.605-3.577,1.237c-0.445-0.391,1.591-2.942,1.206-3.312
					c-0.389-0.375-3.358,1.274-3.746,0.861c-0.392-0.417,1.944-2.732,1.61-3.123c-0.354-0.413-3.519,0.924-3.862,0.476
					c-0.349-0.454,2.256-2.512,1.967-2.931c-0.308-0.441-3.633,0.555-3.921,0.081c-0.306-0.502,2.544-2.261,2.301-2.712
					c-0.259-0.479-3.722,0.114-3.949-0.384c-0.241-0.532,2.853-1.906,2.671-2.37c-0.196-0.511-3.756-0.397-3.907-0.907
					c-0.167-0.564,3.156-1.418,3.056-1.88c-0.117-0.544-3.704-1.13-3.743-1.614c-0.034-0.415,1.538-0.464,2.591-0.57
					c0,0,0,0,0.001,0.001c0.046,0.042,0.15,0.022,0.292-0.035c0.364-0.048,0.618-0.11,0.63-0.214c0.004-0.035,0-0.078-0.007-0.123
					c0.878-0.531,2.078-1.385,2.299-1.116c0.268,0.328-2.002,2.857-1.661,3.292c0.281,0.362,3.22-1.28,3.512-0.895
					c0.266,0.352-2.121,2.697-1.799,3.111c0.299,0.383,3.273-1.194,3.574-0.817c0.282,0.354-2.065,2.701-1.729,3.102
					c0.317,0.378,3.254-1.258,3.567-0.901c0.3,0.343-1.957,2.747-1.606,3.126c0.336,0.361,3.198-1.383,3.526-1.046
					c0.315,0.324-1.825,2.808-1.461,3.163c0.356,0.343,3.122-1.53,3.463-1.215c0.329,0.304-1.677,2.872-1.297,3.203
					c0.369,0.319,3.025-1.682,3.378-1.393c0.345,0.282-1.519,2.934-1.126,3.239c0.41,0.318,2.968-1.797,3.359-1.513
					c0.345,0.252-1.38,2.977-1,3.238c0.403,0.277,2.808-1.979,3.175-1.741c0.39,0.254-1.15,3.07-0.725,3.331
					c0.432,0.264,2.717-2.1,3.108-1.873c0.397,0.227-0.995,3.106-0.566,3.338c0.455,0.246,2.624-2.215,3.034-2.006
					c0.418,0.212-0.821,3.147-0.376,3.36c0.475,0.228,2.53-2.32,2.952-2.131c0.448,0.199-0.646,3.183-0.174,3.383
					c0.499,0.211,2.478-2.405,2.917-2.23c0.467,0.185-0.545,3.193-0.069,3.377c0.526,0.199,2.493-2.454,2.939-2.29
					c0.492,0.18-0.56,3.183-0.091,3.358c0.552,0.209,2.716-2.392,3.139-2.224c0.541,0.216-1.087,3.041-0.707,3.255
					c0.046,0.027,0.113,0.046,0.194,0.06C36.992,72.724,37.332,74.07,36.894,74.139z"/>
			</g>
			<g>
				<g>
					<path style="fill:#B8CE64;" d="M-19.444,62.046c0.405-0.323,3.059,2.072,3.483,1.713c0.407-0.345-1.523-3.35-1.167-3.668
						c0.365-0.328,3.119,1.939,3.503,1.576c0.394-0.373-1.688-3.284-1.346-3.627c0.354-0.354,3.223,1.764,3.589,1.377
						c0.379-0.403-1.839-3.216-1.512-3.582c0.339-0.382,3.307,1.595,3.655,1.185c0.362-0.43-1.977-3.153-1.666-3.539
						c0.326-0.407,3.369,1.447,3.699,1.019c0.349-0.454-2.085-3.115-1.794-3.514c0.313-0.427,3.395,1.36,3.706,0.926
						c0.337-0.469-2.14-3.127-1.864-3.524c0.302-0.436,3.35,1.423,3.643,1.014c0.352-0.492-2.002-3.358-1.725-3.727
						c0.347-0.463,3.022,1.985,3.333,1.685c0.506-0.49,0.447-4.472,0.779-4.391c0.348,0.085-1.813,3.357-1.734,4.106
						c0.047,0.449,3.695,0.227,3.643,0.93c-0.041,0.548-3.76,1.209-3.881,1.828c-0.104,0.523,3.34,1.491,3.167,2.129
						c-0.157,0.576-3.845,0.447-4.052,1.027c-0.186,0.523,3.021,2.083,2.771,2.682c-0.237,0.566-3.826-0.107-4.095,0.434
						c-0.252,0.513,2.702,2.506,2.387,3.074c-0.3,0.536-3.747-0.593-4.065-0.091c-0.301,0.474,2.398,2.805,2.038,3.319
						c-0.356,0.508-3.638-1.006-4.003-0.54c-0.347,0.443,2.075,3.066,1.668,3.538c-0.401,0.467-3.48-1.399-3.884-0.975
						c-0.398,0.419,1.714,3.309,1.252,3.749c-0.436,0.418-3.278-1.774-3.709-1.399c-0.407,0.354,1.427,3.428,0.963,3.796
						c-0.523,0.416-3.153-2.027-3.648-1.672c-0.474,0.341,0.989,3.62,0.47,3.956c-0.531,0.344-2.846-2.383-3.342-2.094
						c-0.511,0.298,0.584,3.729,0.03,4.014c-0.57,0.295-2.57-2.664-3.096-2.424c-0.544,0.248,0.154,3.797-0.426,4.027
						c-0.604,0.237-2.246-2.93-2.793-2.744c-0.571,0.193-0.304,3.815-0.902,3.981c-0.628,0.174-1.857-3.172-2.414-3.047
						c-0.591,0.131-0.796,3.782-1.399,3.876c-0.642,0.102-1.376-3.39-1.927-3.334c-0.595,0.06-1.345,3.676-1.926,3.69
						c-0.633,0.016-0.712-3.564-1.221-3.587c-0.611-0.028-2.148,3.429-2.671,3.34c-0.692-0.118,0.484-3.593,0.076-3.751
						c-0.607-0.236-4.297,1.127-4.3,0.799c-0.005-0.358,3.85,0.602,4.503,0.196c0.392-0.244-1.296-3.443-0.735-3.687
						c0.438-0.19,2.683,2.755,3.256,2.518c0.485-0.2-0.604-3.599-0.094-3.803c0.462-0.186,2.501,2.82,3.046,2.592
						c0.493-0.208-0.557-3.615-0.072-3.823c0.455-0.198,2.508,2.765,3.026,2.525c0.488-0.227-0.647-3.606-0.183-3.833
						c0.438-0.215,2.569,2.672,3.061,2.417c0.463-0.243-0.822-3.568-0.39-3.808c0.426-0.235,2.675,2.551,3.146,2.274
						c0.445-0.265-0.997-3.525-0.586-3.783c0.406-0.256,2.777,2.421,3.224,2.123c0.441-0.295-1.156-3.487-0.753-3.773
						c0.383-0.271,2.876,2.286,3.291,1.97C-18.013,65.415-19.801,62.331-19.444,62.046z"/>
				</g>
			</g>
			<g>
				<g>
					<path style="fill:#B8CE64;" d="M25.385,40.781c-0.507,0.101-0.394,3.672-0.943,3.765c-0.525,0.089-1.571-3.328-2.045-3.261
						c-0.487,0.066-0.535,3.634-1.061,3.692c-0.539,0.061-1.415-3.409-1.897-3.37c-0.499,0.041-0.735,3.6-1.27,3.628
						c-0.551,0.03-1.264-3.481-1.755-3.467c-0.51,0.011-0.92,3.555-1.459,3.557c-0.561,0-1.129-3.547-1.623-3.559
						c-0.519-0.015-1.073,3.507-1.612,3.482c-0.571-0.026-1.029-3.603-1.523-3.638C9.67,41.57,9.04,45.08,8.509,45.037
						c-0.574-0.048-1.003-3.655-1.484-3.702c-0.527-0.051-1.077,3.477-1.579,3.436c-0.604-0.05-1.269-3.698-1.731-3.726
						c-0.575-0.033-0.436,3.591-0.867,3.634c-0.701,0.07-3.701-2.547-3.854-2.243c-0.161,0.321,3.734,0.784,4.255,1.329
						c0.312,0.327-2.216,2.969-1.646,3.38c0.445,0.325,3.354-2.085,3.903-1.78c0.466,0.259-1.022,3.514-0.423,3.793
						c0.542,0.253,2.826-2.647,3.401-2.428c0.521,0.195-0.363,3.651,0.258,3.847c0.584,0.184,2.389-2.991,2.976-2.845
						c0.555,0.138,0.167,3.682,0.804,3.807c0.602,0.117,1.969-3.244,2.558-3.163c0.556,0.077,0.59,3.644,1.216,3.701
						c0.617,0.056,1.582-3.426,2.176-3.403c0.561,0.02,0.997,3.564,1.621,3.557c0.615-0.004,1.18-3.56,1.764-3.594
						c0.578-0.033,1.418,3.446,2.053,3.377c0.602-0.062,0.765-3.648,1.329-3.736c0.533-0.08,1.694,3.304,2.275,3.189
						c0.655-0.131,0.489-3.717,1.081-3.866c0.563-0.142,2.122,3.095,2.713,2.917c0.605-0.186,0.02-3.714,0.562-3.908
						c0.558-0.196,2.468,2.857,3.044,2.619c0.594-0.244-0.374-3.685,0.15-3.93c0.541-0.256,2.797,2.571,3.347,2.276
						c0.572-0.306-0.785-3.609-0.291-3.906c0.519-0.309,3.11,2.236,3.623,1.885c0.54-0.368-1.22-3.468-0.765-3.813
						c0.481-0.364,3.398,1.836,3.86,1.438c0.491-0.426-1.697-3.242-1.299-3.625c0.43-0.416,3.675,1.347,4.06,0.914
						c0.421-0.475-2.259-2.846-1.947-3.25c0.373-0.485,4.003,0.577,4.273,0.119c0.357-0.606-3.055-1.951-2.912-2.366
						c0.212-0.616,3.637-2.551,3.389-2.768c-0.269-0.233-2.03,3.331-2.76,3.567c-0.439,0.14-1.79-3.214-2.338-2.942
						c-0.428,0.21,0.37,3.826-0.181,4.112c-0.468,0.243-2.357-2.788-2.843-2.53c-0.438,0.234,0.536,3.731,0.009,4
						c-0.476,0.243-2.396-2.758-2.87-2.525c-0.444,0.22,0.491,3.702-0.027,3.941c-0.489,0.228-2.333-2.823-2.806-2.613
						c-0.448,0.195,0.378,3.689-0.135,3.897c-0.484,0.198-2.191-2.932-2.652-2.757c-0.456,0.173,0.218,3.691-0.3,3.871
						c-0.489,0.17-2.045-3.038-2.507-2.89c-0.458,0.144,0.054,3.685-0.463,3.831c-0.51,0.148-1.912-3.134-2.392-3.011
						c-0.455,0.118-0.115,3.67-0.624,3.786C27.031,44.049,25.834,40.69,25.385,40.781z"/>
				</g>
			</g>
			<g>
				<path style="fill:#91B026;" d="M-43.832,27.8c0.069-0.045,0.198,0.162,0.361,0.489C-43.735,28.03-43.896,27.842-43.832,27.8z"/>
				<path style="fill:#91B026;" d="M-41.351,30.47c0.021,0.123-0.312,0.288-0.751,0.475c-0.414-0.438-0.985-1.883-1.369-2.656
					C-42.793,28.954-41.428,30.088-41.351,30.47z"/>
				<path style="fill:#91B026;" d="M-3.181,42.298c0.34-0.165,0.576-0.253,0.601-0.178C-2.553,42.202-2.801,42.253-3.181,42.298z"/>
				<path style="fill:#91B026;" d="M-6.014,43.531c-0.04-0.081-0.076-0.16-0.11-0.232c-0.021-0.154-0.023-0.375-0.019-0.625
					c0.506-0.229,2.085-0.277,2.962-0.375C-4.05,42.717-5.6,43.627-6.014,43.531z"/>
				<path style="fill:#91B026;" d="M-6.124,43.299c0.021,0.134,0.054,0.219,0.108,0.232c0.001,0,0.001,0,0.002,0
					c0.402,0.822,1.09,1.992,0.741,2.177c-0.403,0.218-2.527-2.105-3.016-1.916c-0.414,0.16,0.441,3.016-0.086,3.178
					c-0.475,0.148-2.028-2.506-2.528-2.393c-0.452,0.104-0.117,3.055-0.652,3.146c-0.503,0.086-1.629-2.742-2.131-2.687
					c-0.473,0.049-0.557,3.019-1.098,3.049c-0.511,0.028-1.254-2.903-1.748-2.903c-0.469,0-0.904,2.94-1.428,2.914
					c-0.516-0.024-0.914-3.008-1.404-3.057c-0.468-0.047-1.231,2.828-1.745,2.751c-0.508-0.074-0.567-3.073-1.045-3.168
					c-0.474-0.095-1.565,2.681-2.081,2.553c-0.488-0.122-0.214-3.099-0.669-3.235c-0.432-0.128-1.775,2.533-2.24,2.371
					c-0.526-0.182,0.019-3.123-0.451-3.313c-0.451-0.182-2.105,2.31-2.573,2.096c-0.479-0.223,0.408-3.067-0.017-3.288
					c-0.438-0.229-2.364,2.073-2.81,1.813c-0.464-0.271,0.729-2.999,0.324-3.262c-0.418-0.269-2.602,1.803-3.023,1.496
					c-0.437-0.318,1.061-2.887,0.687-3.19c-0.392-0.314-2.822,1.491-3.205,1.143c-0.403-0.366,1.404-2.725,1.067-3.061
					c-0.355-0.355-3.015,1.128-3.351,0.747c-0.357-0.409,1.77-2.481,1.485-2.844c-0.307-0.391-3.186,0.691-3.453,0.291
					c-0.294-0.441,2.188-2.09,1.977-2.459c-0.253-0.442-3.37,0.018-3.54-0.391c-0.148-0.354,1.083-0.788,1.924-1.145
					c0.049,0.052,0.096,0.092,0.14,0.113c0.346,0.166,1.844-2.448,2.265-2.162c0.329,0.225-0.742,3.116-0.32,3.415
					c0.357,0.254,2.264-2.03,2.635-1.762c0.336,0.244-0.868,3.018-0.465,3.3c0.365,0.255,2.294-2.002,2.656-1.755
					c0.344,0.231-0.826,2.997-0.426,3.254c0.378,0.243,2.248-2.063,2.615-1.836c0.347,0.212-0.733,3-0.335,3.23
					c0.376,0.22,2.143-2.168,2.504-1.97c0.355,0.193-0.602,3.02-0.196,3.229c0.385,0.195,2.035-2.275,2.398-2.102
					c0.362,0.174-0.464,3.037-0.055,3.217c0.404,0.18,1.936-2.37,2.317-2.212c0.362,0.147-0.324,3.043,0.083,3.196
					c0.385,0.146,1.756-2.491,2.116-2.363c0.407,0.141-0.095,3.077,0.349,3.213c0.424,0.133,1.677-2.565,2.06-2.458
					c0.395,0.111,0.026,3.061,0.451,3.168c0.439,0.111,1.559-2.651,1.952-2.563c0.407,0.09,0.197,3.055,0.633,3.139
					c0.452,0.088,1.441-2.729,1.846-2.664c0.419,0.07,0.351,3.041,0.796,3.103c0.464,0.066,1.338-2.796,1.747-2.751
					c0.431,0.048,0.485,3.017,0.934,3.059c0.474,0.044,1.259-2.857,1.671-2.829c0.439,0.029,0.559,2.998,1.002,3.021
					c0.477,0.028,1.245-2.9,1.647-2.882c0.44,0.018,0.491,2.991,0.91,3.014c0.504,0.029,1.47-2.907,1.854-2.875
					c0.315,0.025,0.192,1.332,0.174,2.241c-0.039,0.017-0.074,0.037-0.1,0.057C-6.32,42.793-6.252,43.01-6.124,43.299z"/>
			</g>
			<path style="fill:#CB947F;" d="M-1.79,41.564c0-1.865-1.073-3.376-2.396-3.376c-1.323,0-2.397,1.512-2.397,3.376
				c0,1.865,1.074,3.377,2.397,3.377C-2.863,44.941-1.79,43.429-1.79,41.564z"/>
			<path style="fill:#CB947F;" d="M5.744,43.514c0-1.745-1.27-3.159-2.832-3.159c-1.564,0-2.832,1.414-2.832,3.159
				c0,1.745,1.268,3.161,2.832,3.161C4.475,46.674,5.744,45.259,5.744,43.514z"/>
			<path style="fill:#CB947F;" d="M0.722,44.297c0-1.866-0.976-3.378-2.178-3.378c-1.203,0-2.178,1.512-2.178,3.378
				c0,1.866,0.975,3.377,2.178,3.377C-0.254,47.674,0.722,46.163,0.722,44.297z"/>
		</g>
	</g>
	<g>
		<g>
			<path style="fill:#A74E49;" d="M53.392-1.459c0.001,0.006,0.001,0.02,0.004,0.021C53.399-1.439,53.396-1.447,53.392-1.459z"/>
			<path style="fill:#A74E49;" d="M53.409-2.297c-0.022-0.004-0.066,0.434-0.103,0.678c0.038,0.068,0.072,0.129,0.085,0.16
				C53.376-1.566,53.438-2.293,53.409-2.297z"/>
			<path style="fill:#A74E49;" d="M53.281-2.316c-0.02-0.003-0.052,0.268-0.083,0.502c0.021,0.038,0.043,0.08,0.069,0.126
				C53.278-1.942,53.304-2.314,53.281-2.316z"/>
			<path style="fill:#A74E49;" d="M46.377-57.542c0.126,1.154-0.557,1.27-0.431,2.424c0.132,1.203,0.814,1.088,0.946,2.292
				c0.132,1.202-0.551,1.316-0.419,2.519c0.133,1.216,0.816,1.1,0.949,2.317c0.129,1.185-0.554,1.301-0.424,2.486
				c0.128,1.169,0.811,1.054,0.938,2.224c0.133,1.21-0.55,1.326-0.418,2.536c0.132,1.205,0.815,1.089,0.947,2.292
				c0.131,1.202-0.552,1.318-0.42,2.521c0.132,1.206,0.815,1.092,0.945,2.298c0.135,1.213-0.549,1.326-0.416,2.539
				c0.134,1.221,0.816,1.107,0.949,2.327c0.135,1.23-0.547,1.346-0.412,2.576c0.131,1.202,0.814,1.087,0.945,2.288
				c0.133,1.217-0.549,1.333-0.416,2.549c0.13,1.197,0.814,1.082,0.943,2.277c0.135,1.211-0.55,1.329-0.417,2.542
				c0.131,1.195,0.816,1.08,0.945,2.276c0.133,1.215-0.549,1.33-0.416,2.545c0.13,1.2,0.812,1.086,0.945,2.286
				c0.133,1.223-0.55,1.337-0.416,2.559c0.132,1.209,0.814,1.094,0.947,2.302c0.135,1.233-0.547,1.347-0.412,2.578
				c0,0,0.124-0.452,0.293-0.48l0.047,0.851v-0.854v0.854c0.001,0,0.039-0.853,0.039-0.853c0.045,0.006-0.03,0.856,0.015,0.863
				c0.042,0.006,0.117-0.846,0.16-0.84c0.034,0.005-0.04,0.855-0.007,0.859c0.029,0.006,0.104-0.846,0.135-0.842
				c0.025,0.004-0.049,0.855-0.023,0.857c0.023,0.004,0.099-0.848,0.122-0.844c0.066,0.01-0.011,0.859,0.055,0.868
				c0.056,0.007,0.131-0.842,0.188-0.835c0.05,0.007-0.026,0.857,0.024,0.863c0.046,0.007,0.121-0.843,0.167-0.838
				c0.041,0.005-0.034,0.857,0.008,0.863c0.039,0.004,0.114-0.846,0.153-0.84C53.175-2.33,53.1-1.48,53.137-1.475
				c0.016,0.002,0.038-0.158,0.062-0.339c-0.029-0.054-0.05-0.093-0.048-0.104c0.128-1.104,0.782-0.999,0.881-2.106
				c0.1-1.118-0.585-1.212-0.484-2.33c0.102-1.157,0.788-1.063,0.892-2.218c0.107-1.207-0.577-1.301-0.47-2.506
				c0.106-1.204,0.793-1.109,0.899-2.315c0.105-1.164-0.58-1.258-0.476-2.423c0.106-1.194,0.792-1.102,0.898-2.294
				c0.109-1.228-0.575-1.322-0.466-2.549c0.108-1.213,0.793-1.119,0.902-2.332c0.108-1.206-0.577-1.301-0.47-2.508
				c0.108-1.206,0.793-1.112,0.901-2.318c0.107-1.208-0.577-1.303-0.469-2.512c0.108-1.216,0.794-1.121,0.902-2.338
				c0.108-1.223-0.576-1.317-0.467-2.541c0.11-1.234,0.796-1.14,0.906-2.374c0.107-1.205-0.577-1.3-0.471-2.504
				c0.11-1.222,0.795-1.128,0.904-2.348c0.106-1.198-0.578-1.293-0.471-2.493c0.108-1.215,0.794-1.123,0.901-2.338
				c0.108-1.2-0.576-1.293-0.471-2.493c0.11-1.219,0.795-1.125,0.903-2.343c0.107-1.204-0.576-1.298-0.469-2.502
				c0.108-1.226,0.795-1.131,0.903-2.357c0.101-1.123-0.479-1.287-0.478-2.272H45.54C45.766-58.552,46.273-58.492,46.377-57.542z"/>
			<path style="fill:#A74E49;" d="M53.271-1.456c0.009,0,0.021-0.067,0.035-0.164c-0.013-0.022-0.025-0.045-0.039-0.068
				C53.263-1.559,53.261-1.459,53.271-1.456z"/>
		</g>
		<g>
			<g>
				<path style="fill:#A8C541;" d="M51.328,1.678c0.239-0.268,0.286-1.889,0.376-2.753c-0.306,0.716-0.943,1.94-1.004,2.437
					c0.164,0.125,0.312,0.229,0.426,0.287C51.188,1.659,51.256,1.668,51.328,1.678z"/>
				<path style="fill:#A8C541;" d="M51.842-1.62c-0.062-0.017-0.102,0.206-0.138,0.544C51.837-1.386,51.907-1.601,51.842-1.62z"/>
				<path style="fill:#A8C541;" d="M25.209,22.85c-0.289-0.035-0.482-0.035-0.482,0.037C24.728,22.959,24.922,22.927,25.209,22.85z"
					/>
				<path style="fill:#A8C541;" d="M27.569,23.088c0.061-0.424,0.092-0.76,0-0.8c-0.288-0.128-1.628,0.366-2.36,0.562
					C25.888,22.93,27.099,23.192,27.569,23.088z"/>
				<path style="fill:#A8C541;" d="M27.518,25.106c0.347,0.066,1.362-2.53,1.766-2.508c0.336,0.017,0.388,2.705,0.808,2.694
					c0.384-0.01,0.88-2.725,1.274-2.771c0.364-0.042,0.849,2.58,1.273,2.502c0.398-0.07,0.534-2.812,0.924-2.91
					c0.368-0.095,1.182,2.42,1.596,2.289c0.396-0.125,0.219-2.845,0.597-2.992c0.362-0.14,1.446,2.241,1.846,2.063
					c0.384-0.174-0.077-2.837,0.282-3.026c0.347-0.18,1.669,2.043,2.047,1.823c0.364-0.215-0.358-2.792-0.021-3.016
					c0.327-0.217,1.857,1.832,2.209,1.574c0.343-0.253-0.624-2.715-0.311-2.971c0.326-0.266,2.065,1.568,2.411,1.256
					c0.306-0.277-0.905-2.586-0.638-2.852c0.284-0.281,2.162,1.365,2.451,1.053c0.306-0.332-1.09-2.502-0.825-2.817
					c0.266-0.32,2.3,1.082,2.565,0.733c0.27-0.356-1.332-2.324-1.103-2.657c0.241-0.352,2.411,0.785,2.646,0.405
					c0.238-0.386-1.546-2.137-1.348-2.493c0.211-0.377,2.489,0.471,2.688,0.068c0.209-0.427-1.745-1.923-1.578-2.308
					c0.178-0.407,2.551,0.1,2.706-0.326c0.166-0.451-1.954-1.62-1.83-2.015c0.135-0.434,2.575-0.337,2.679-0.771
					c0.113-0.479-2.163-1.208-2.094-1.599c0.079-0.464,2.537-0.96,2.564-1.372c0.023-0.354-1.054-0.395-1.774-0.484
					c-0.002,0-0.002,0-0.002,0c-0.031,0.035-0.102,0.02-0.2-0.03c-0.25-0.04-0.424-0.094-0.431-0.182
					C50.691,1.435,50.693,1.4,50.7,1.361c-0.602-0.453-1.425-1.178-1.576-0.949c-0.184,0.279,1.371,2.43,1.138,2.8
					c-0.192,0.307-2.206-1.089-2.406-0.761c-0.182,0.298,1.455,2.293,1.233,2.645c-0.205,0.325-2.244-1.016-2.45-0.693
					C46.445,4.701,48.055,6.7,47.824,7.04c-0.219,0.323-2.23-1.07-2.445-0.765c-0.205,0.291,1.342,2.334,1.101,2.657
					c-0.229,0.31-2.192-1.175-2.415-0.889c-0.216,0.276,1.249,2.388,0.999,2.69c-0.242,0.292-2.139-1.299-2.372-1.032
					c-0.226,0.257,1.148,2.442,0.889,2.722c-0.254,0.273-2.073-1.43-2.315-1.185c-0.236,0.241,1.041,2.498,0.771,2.757
					c-0.281,0.27-2.033-1.527-2.302-1.288c-0.236,0.216,0.946,2.532,0.685,2.754c-0.275,0.237-1.925-1.683-2.177-1.482
					c-0.267,0.217,0.789,2.614,0.497,2.834c-0.295,0.225-1.861-1.786-2.13-1.594c-0.273,0.192,0.682,2.641,0.387,2.839
					c-0.312,0.21-1.797-1.884-2.078-1.707c-0.286,0.18,0.562,2.676,0.257,2.858c-0.324,0.192-1.733-1.976-2.022-1.813
					c-0.308,0.17,0.441,2.708,0.119,2.876c-0.343,0.181-1.698-2.044-1.999-1.895c-0.32,0.157,0.374,2.715,0.047,2.872
					c-0.36,0.172-1.708-2.086-2.014-1.946c-0.337,0.151,0.384,2.705,0.062,2.856c-0.38,0.178-1.862-2.037-2.151-1.893
					c-0.371,0.184,0.745,2.586,0.484,2.769c-0.031,0.021-0.078,0.04-0.133,0.052C27.45,23.903,27.218,25.047,27.518,25.106z"/>
			</g>
			<g>
				<g>
					<path style="fill:#B8CE64;" d="M66.126,14.821c-0.277-0.273-2.096,1.762-2.387,1.457c-0.278-0.293,1.043-2.85,0.8-3.122
						c-0.25-0.278-2.138,1.65-2.4,1.342c-0.27-0.318,1.156-2.793,0.922-3.086c-0.242-0.299-2.209,1.503-2.46,1.172
						c-0.26-0.343,1.261-2.735,1.037-3.047c-0.232-0.323-2.267,1.357-2.505,1.007c-0.25-0.365,1.354-2.68,1.141-3.008
						c-0.223-0.347-2.308,1.23-2.534,0.866c-0.239-0.386,1.429-2.649,1.229-2.99c-0.214-0.361-2.327,1.158-2.54,0.788
						c-0.229-0.398,1.467-2.66,1.277-2.997c-0.205-0.371-2.294,1.21-2.495,0.861c-0.241-0.419,1.372-2.856,1.182-3.171
						c-0.236-0.392-2.071,1.69-2.284,1.434c-0.347-0.416-0.308-3.804-0.534-3.735c-0.237,0.074,1.244,2.856,1.189,3.492
						c-0.033,0.385-2.533,0.194-2.497,0.792c0.028,0.467,2.576,1.029,2.66,1.555c0.071,0.444-2.289,1.267-2.17,1.81
						c0.106,0.491,2.635,0.381,2.776,0.875c0.127,0.445-2.071,1.771-1.899,2.281c0.162,0.481,2.623-0.092,2.807,0.37
						c0.173,0.435-1.853,2.131-1.635,2.614c0.204,0.455,2.567-0.504,2.785-0.079c0.207,0.404-1.644,2.386-1.396,2.825
						c0.244,0.431,2.492-0.859,2.742-0.46c0.237,0.376-1.423,2.608-1.144,3.009c0.274,0.398,2.385-1.189,2.661-0.83
						c0.274,0.357-1.173,2.815-0.857,3.19c0.299,0.353,2.247-1.509,2.541-1.19c0.28,0.302-0.977,2.915-0.659,3.23
						c0.358,0.354,2.161-1.724,2.5-1.423c0.324,0.29-0.678,3.08-0.322,3.364c0.364,0.292,1.95-2.027,2.29-1.782
						c0.351,0.254-0.399,3.172-0.021,3.416c0.39,0.25,1.761-2.267,2.121-2.062c0.373,0.213-0.105,3.23,0.292,3.424
						c0.414,0.202,1.539-2.491,1.914-2.333c0.392,0.165,0.208,3.246,0.618,3.386c0.431,0.149,1.273-2.698,1.654-2.592
						c0.405,0.112,0.545,3.214,0.959,3.297c0.439,0.085,0.943-2.883,1.319-2.835c0.407,0.05,0.923,3.127,1.32,3.139
						c0.435,0.013,0.488-3.033,0.837-3.051c0.419-0.024,1.472,2.916,1.83,2.84c0.474-0.101-0.332-3.057-0.053-3.19
						c0.416-0.202,2.944,0.958,2.947,0.679c0.004-0.304-2.639,0.512-3.086,0.167c-0.269-0.206,0.889-2.928,0.503-3.134
						c-0.3-0.163-1.837,2.342-2.23,2.142c-0.333-0.171,0.415-3.063,0.064-3.237c-0.316-0.158-1.714,2.399-2.088,2.205
						c-0.338-0.176,0.381-3.074,0.05-3.25c-0.312-0.169-1.718,2.352-2.073,2.145c-0.336-0.191,0.443-3.064,0.125-3.258
						c-0.301-0.182-1.762,2.271-2.098,2.055c-0.317-0.205,0.563-3.035,0.267-3.239c-0.292-0.199-1.833,2.17-2.156,1.934
						c-0.306-0.225,0.684-2.997,0.401-3.217c-0.278-0.218-1.902,2.06-2.209,1.806c-0.302-0.252,0.793-2.965,0.516-3.21
						c-0.262-0.23-1.97,1.944-2.256,1.677C65.145,17.685,66.371,15.063,66.126,14.821z"/>
				</g>
			</g>
			<g>
				<g>
					<path style="fill:#B8CE64;" d="M35.405-3.266c0.347,0.085,0.27,3.124,0.646,3.203c0.36,0.075,1.077-2.83,1.401-2.774
						c0.334,0.057,0.368,3.09,0.728,3.139c0.369,0.052,0.97-2.899,1.301-2.865c0.342,0.032,0.504,3.061,0.87,3.086
						c0.377,0.024,0.866-2.961,1.202-2.95c0.349,0.01,0.63,3.024,0.999,3.024c0.385,0,0.774-3.015,1.114-3.026
						c0.355-0.013,0.734,2.982,1.105,2.96c0.39-0.022,0.704-3.064,1.042-3.094c0.361-0.031,0.792,2.953,1.157,2.916
						c0.394-0.039,0.688-3.108,1.017-3.147c0.36-0.044,0.738,2.958,1.083,2.92c0.412-0.042,0.869-3.144,1.187-3.168
						c0.394-0.028,0.299,3.055,0.594,3.092c0.479,0.06,2.536-2.167,2.641-1.907c0.109,0.271-2.559,0.667-2.915,1.129
						c-0.214,0.276,1.518,2.524,1.128,2.875c-0.306,0.275-2.299-1.775-2.677-1.514c-0.317,0.22,0.7,2.986,0.291,3.225
						c-0.372,0.216-1.938-2.25-2.332-2.066c-0.356,0.168,0.25,3.107-0.176,3.274c-0.4,0.157-1.638-2.543-2.039-2.42
						c-0.381,0.118-0.114,3.131-0.552,3.239c-0.412,0.099-1.351-2.758-1.751-2.69c-0.383,0.064-0.405,3.098-0.834,3.147
						c-0.423,0.047-1.084-2.915-1.49-2.895c-0.385,0.018-0.685,3.032-1.111,3.026c-0.423-0.003-0.81-3.028-1.209-3.057
						c-0.396-0.028-0.972,2.93-1.406,2.874c-0.414-0.054-0.524-3.104-0.912-3.178c-0.364-0.068-1.161,2.81-1.558,2.711
						c-0.45-0.109-0.337-3.161-0.741-3.287c-0.388-0.121-1.455,2.632-1.86,2.48c-0.415-0.157-0.014-3.159-0.385-3.322
						c-0.382-0.169-1.69,2.426-2.086,2.226c-0.406-0.208,0.256-3.133-0.103-3.342c-0.371-0.217-1.916,2.187-2.294,1.936
						c-0.392-0.262,0.538-3.071,0.198-3.323c-0.354-0.264-2.13,1.901-2.481,1.604c-0.37-0.312,0.836-2.95,0.524-3.243
						c-0.33-0.311-2.33,1.561-2.646,1.223c-0.338-0.364,1.162-2.757,0.89-3.084c-0.294-0.355-2.517,1.147-2.781,0.777
						c-0.29-0.402,1.547-2.42,1.334-2.765c-0.257-0.412-2.743,0.491-2.93,0.102c-0.243-0.515,2.094-1.66,1.997-2.011
						c-0.146-0.522-2.492-2.17-2.322-2.354c0.185-0.199,1.39,2.832,1.892,3.034c0.3,0.119,1.225-2.735,1.601-2.502
						c0.294,0.178-0.254,3.255,0.124,3.497c0.32,0.205,1.615-2.372,1.948-2.151c0.302,0.196-0.367,3.173-0.006,3.403
						c0.326,0.205,1.643-2.348,1.967-2.149c0.305,0.188-0.336,3.148,0.019,3.353c0.336,0.192,1.599-2.401,1.923-2.224
						c0.307,0.167-0.259,3.137,0.092,3.316c0.333,0.168,1.503-2.495,1.819-2.347c0.312,0.146-0.15,3.14,0.204,3.292
						c0.336,0.145,1.401-2.584,1.719-2.458c0.314,0.123-0.037,3.134,0.316,3.259c0.35,0.124,1.311-2.666,1.641-2.561
						c0.312,0.1,0.078,3.122,0.426,3.22C34.277-0.486,35.097-3.342,35.405-3.266z"/>
				</g>
			</g>
			<g>
				<path style="fill:#91B026;" d="M82.84-14.305c-0.048-0.039-0.137,0.138-0.248,0.416C82.774-14.11,82.885-14.27,82.84-14.305z"/>
				<path style="fill:#91B026;" d="M81.14-12.036c-0.018,0.106,0.212,0.247,0.514,0.405c0.284-0.373,0.676-1.602,0.938-2.258
					C82.128-13.325,81.191-12.359,81.14-12.036z"/>
				<path style="fill:#91B026;" d="M54.98-1.975c-0.232-0.141-0.395-0.215-0.411-0.151C54.55-2.058,54.721-2.013,54.98-1.975z"/>
				<path style="fill:#91B026;" d="M56.922-0.926c0.028-0.07,0.052-0.137,0.076-0.199c0.014-0.131,0.017-0.319,0.014-0.532
					c-0.348-0.193-1.43-0.234-2.031-0.318C55.577-1.62,56.64-0.845,56.922-0.926z"/>
				<path style="fill:#91B026;" d="M56.998-1.125c-0.013,0.115-0.036,0.187-0.074,0.198c0,0.001,0,0.001-0.002,0.001
					c-0.274,0.699-0.746,1.693-0.508,1.852c0.277,0.184,1.732-1.792,2.067-1.629C58.766-0.566,58.178,1.862,58.54,2
					c0.325,0.125,1.392-2.132,1.732-2.036c0.311,0.088,0.08,2.598,0.447,2.675c0.345,0.073,1.116-2.333,1.461-2.287
					c0.323,0.043,0.381,2.568,0.752,2.594c0.35,0.024,0.859-2.469,1.198-2.469c0.32,0,0.619,2.5,0.978,2.48
					c0.354-0.021,0.626-2.559,0.964-2.601c0.319-0.04,0.844,2.405,1.195,2.34c0.347-0.062,0.388-2.614,0.716-2.695
					c0.324-0.08,1.072,2.281,1.426,2.171c0.335-0.104,0.146-2.635,0.457-2.75c0.297-0.109,1.219,2.153,1.537,2.016
					c0.36-0.156-0.013-2.657,0.31-2.82c0.309-0.151,1.442,1.967,1.763,1.784c0.328-0.189-0.279-2.609,0.011-2.796
					c0.3-0.193,1.62,1.764,1.928,1.543c0.315-0.232-0.5-2.55-0.225-2.774c0.287-0.23,1.784,1.531,2.072,1.271
					c0.3-0.271-0.727-2.457-0.47-2.713c0.268-0.267,1.933,1.269,2.196,0.973c0.276-0.31-0.962-2.316-0.732-2.603
					C78.5-7,80.322-5.737,80.553-6.062c0.245-0.348-1.214-2.11-1.018-2.418c0.21-0.333,2.183,0.588,2.367,0.246
					c0.202-0.374-1.5-1.778-1.355-2.092c0.173-0.376,2.31,0.016,2.427-0.332c0.1-0.301-0.743-0.669-1.319-0.973
					c-0.033,0.043-0.065,0.078-0.095,0.096c-0.238,0.143-1.264-2.082-1.553-1.838c-0.226,0.189,0.509,2.651,0.22,2.904
					c-0.245,0.215-1.552-1.728-1.806-1.499c-0.23,0.208,0.595,2.567,0.318,2.807c-0.25,0.218-1.572-1.703-1.821-1.493
					c-0.234,0.197,0.567,2.547,0.293,2.768c-0.259,0.207-1.541-1.754-1.793-1.562C75.18-9.267,75.92-6.896,75.647-6.7
					c-0.259,0.187-1.468-1.844-1.717-1.676c-0.243,0.165,0.414,2.569,0.135,2.747c-0.264,0.165-1.394-1.937-1.644-1.787
					c-0.248,0.147,0.317,2.582,0.038,2.735c-0.277,0.153-1.328-2.015-1.589-1.881c-0.247,0.126,0.223,2.587-0.057,2.718
					c-0.264,0.123-1.203-2.118-1.45-2.01c-0.279,0.119,0.064,2.616-0.239,2.734c-0.29,0.113-1.149-2.183-1.412-2.09
					c-0.27,0.093-0.018,2.603-0.31,2.695c-0.3,0.094-1.067-2.254-1.338-2.18c-0.279,0.076-0.135,2.598-0.433,2.67
					c-0.31,0.073-0.988-2.321-1.266-2.264c-0.286,0.059-0.24,2.584-0.545,2.637c-0.318,0.056-0.916-2.379-1.197-2.342
					c-0.295,0.043-0.332,2.568-0.64,2.602c-0.324,0.038-0.863-2.428-1.146-2.404c-0.301,0.025-0.382,2.549-0.687,2.571
					c-0.329,0.023-0.854-2.468-1.129-2.455c-0.302,0.017-0.337,2.546-0.624,2.566c-0.346,0.023-1.008-2.473-1.269-2.446
					c-0.218,0.021-0.133,1.133-0.119,1.904c0.026,0.016,0.05,0.033,0.067,0.05C57.133-1.553,57.086-1.371,56.998-1.125z"/>
			</g>
			<path style="fill:#CB947F;" d="M54.028-2.601c0-1.584,0.735-2.871,1.642-2.871c0.907,0,1.642,1.286,1.642,2.871
				c0,1.587-0.734,2.875-1.642,2.875C54.764,0.273,54.028-1.014,54.028-2.601z"/>
			<path style="fill:#CB947F;" d="M48.866-0.941c0-1.485,0.868-2.687,1.939-2.687c1.072,0,1.941,1.202,1.941,2.687
				c0,1.484-0.869,2.688-1.941,2.688C49.734,1.747,48.866,0.543,48.866-0.941z"/>
			<path style="fill:#CB947F;" d="M52.308-0.275c0-1.587,0.667-2.872,1.491-2.872c0.825,0,1.493,1.284,1.493,2.872
				c0,1.586-0.668,2.872-1.493,2.872C52.975,2.596,52.308,1.311,52.308-0.275z"/>
		</g>
	</g>
	<polygon style="fill:#513F22;" points="47.112,-59.952 13.47,-62.835 13.071,-37.37 46.016,-33.007 	"/>
	<g>
		<polygon style="fill:#B89178;" points="-54.53,12.125 -66.483,13.247 -69.846,11.752 -69.828,11.716 -55,9.771 		"/>
		<polygon style="fill:#755A32;" points="-69.828,11.716 -68.352,8.761 -55.65,6.52 -55,9.771 		"/>
	</g>
	
		<line style="fill:none;stroke:#755A32;stroke-width:2.6153;stroke-linecap:round;stroke-linejoin:round;" x1="14.955" y1="-53.269" x2="26.536" y2="-37.948"/>
	<polygon style="fill:#B89178;" points="51.565,-33.465 53.433,-59.996 47.082,-61.117 44.841,-60.37 44.094,-35.333 	"/>
	<polygon style="fill:#E08D28;" points="51.54,-29.351 33.235,24.603 8.579,-36.078 	"/>
	<path style="fill:#A74E49;" d="M61.278-34.772l-10.833,0.186L29.15,19.743l5.605,10.464C34.755,30.206,63.894-29.541,61.278-34.772
		z"/>
	<path style="fill:#A8815F;" d="M50.445-34.586l-38.854-6.352l0.748,5.605l36.236,6.353C48.576-28.98,55.675-31.97,50.445-34.586z"
		/>
	<path style="fill:#B89178;" d="M45.962-30.102L7.11-36.454l0.747,5.605l36.236,6.354C44.094-24.496,51.191-27.486,45.962-30.102z"
		/>
	<polygon style="fill:#9E7F66;" points="4.868,-42.432 6.736,-67.096 15.702,-65.976 14.208,-39.069 	"/>
	<path style="fill:#CC7929;" d="M-69.846-37.201c0,0,6.351-11.211,3.363-22.048c22.04-1.868,48.563-9.715,74.341-8.22
		c-4.11,17.563-1.121,27.277-1.121,27.277L-69.846-37.201z"/>
	
		<line style="fill:none;stroke:#755A32;stroke-width:2.6153;stroke-linecap:round;stroke-linejoin:round;" x1="6.736" y1="-67.096" x2="5.242" y2="-44.301"/>
	
		<line style="fill:none;stroke:#9E7F66;stroke-width:2.6153;stroke-linecap:round;stroke-linejoin:round;" x1="3.747" y1="-67.469" x2="2.254" y2="-43.927"/>
	
		<line style="fill:none;stroke:#755A32;stroke-width:2.6153;stroke-linecap:round;stroke-linejoin:round;" x1="0.759" y1="-67.096" x2="-1.108" y2="-43.927"/>
	
		<line style="fill:none;stroke:#755A32;stroke-width:2.6153;stroke-linecap:round;stroke-linejoin:round;" x1="-2.323" y1="-43.822" x2="-29.766" y2="-64.445"/>
	
		<line style="fill:none;stroke:#9E7F66;stroke-width:2.6153;stroke-linecap:round;stroke-linejoin:round;" x1="-26.902" y1="-65.127" x2="-1.767" y2="-46.888"/>
	
		<line style="fill:none;stroke:#B89178;stroke-width:2.6153;stroke-linecap:round;stroke-linejoin:round;" x1="-1.628" y1="-49.814" x2="-23.524" y2="-65.752"/>
	
		<line style="fill:none;stroke:#755A32;stroke-width:2.6153;stroke-linecap:round;stroke-linejoin:round;" x1="-1.209" y1="-52.88" x2="-20.271" y2="-66.128"/>
	
		<line style="fill:none;stroke:#9E7F66;stroke-width:2.6153;stroke-linecap:round;stroke-linejoin:round;" x1="-16.531" y1="-66.675" x2="-0.93" y2="-67.65"/>
	
		<line style="fill:none;stroke:#755A32;stroke-width:2.6153;stroke-linecap:round;stroke-linejoin:round;" x1="-13.328" y1="-64.165" x2="-1.069" y2="-64.445"/>
	
		<line style="fill:none;stroke:#9E7F66;stroke-width:2.6153;stroke-linecap:round;stroke-linejoin:round;" x1="-9.985" y1="-61.38" x2="-0.93" y2="-61.38"/>
	
		<line style="fill:none;stroke:#755A32;stroke-width:2.6153;stroke-linecap:round;stroke-linejoin:round;" x1="-68.31" y1="-39.176" x2="-66.483" y2="-59.249"/>
	
		<line style="fill:none;stroke:#9E7F66;stroke-width:2.6153;stroke-linecap:round;stroke-linejoin:round;" x1="-65.903" y1="-38.875" x2="-64.398" y2="-59.643"/>
	
		<line style="fill:none;stroke:#755A32;stroke-width:2.6153;stroke-linecap:round;stroke-linejoin:round;" x1="-62.594" y1="-39.478" x2="-63.045" y2="-60.393"/>
	<path style="fill:none;stroke:#755A32;stroke-width:2.6153;stroke-linecap:round;stroke-linejoin:round;" d="M-46.799-62.048"/>
	<path style="fill:none;stroke:#755A32;stroke-width:2.6153;stroke-linecap:round;stroke-linejoin:round;" d="M-61.841-46.399"/>
	
		<line style="fill:none;stroke:#9E7F66;stroke-width:2.6153;stroke-linecap:round;stroke-linejoin:round;" x1="-61.691" y1="-42.335" x2="-44.392" y2="-60.995"/>
	
		<line style="fill:none;stroke:#755A32;stroke-width:2.6153;stroke-linecap:round;stroke-linejoin:round;" x1="-61.24" y1="-39.478" x2="-45.144" y2="-57.083"/>
	
		<line style="fill:none;stroke:#9E7F66;stroke-width:2.6153;stroke-linecap:round;stroke-linejoin:round;" x1="-60.905" y1="-59.794" x2="-50.676" y2="-61.298"/>
	
		<line style="fill:none;stroke:#755A32;stroke-width:2.6153;stroke-linecap:round;stroke-linejoin:round;" x1="-61.691" y1="-56.18" x2="-52.966" y2="-57.534"/>
	
		<line style="fill:none;stroke:#9E7F66;stroke-width:2.6153;stroke-linecap:round;stroke-linejoin:round;" x1="-61.691" y1="-52.417" x2="-54.621" y2="-54.073"/>
	
		<line style="fill:none;stroke:#755A32;stroke-width:2.6153;stroke-linecap:round;stroke-linejoin:round;" x1="-61.841" y1="-46.399" x2="-46.799" y2="-62.048"/>
	<g>
		<path style="fill:#76310D;" d="M-55.081,16.22c-0.007,0.033-0.02,0.054-0.04,0.062C-55.121,16.265-55.104,16.243-55.081,16.22z"/>
		<path style="fill:#76310D;" d="M41.034,27.431c-2.041-2.311-3.954-4.603-5.282-6.22c0.735-1.159,18.084-37.2,24.951-55.821
			C67.621-32.264,50.545,13.865,41.034,27.431z"/>
		<g>
			<polygon style="fill:#EAC7A4;" points="57.509,26.293 53.842,23.215 53.627,20.088 58.685,16.706 59.211,16.813 60.848,23.479 
				57.745,26.349 			"/>
			<g>
				<polygon style="fill:#B89178;" points="53.842,23.215 57.509,26.293 31.818,19.402 30.358,14.789 53.694,21.066 				"/>
				<polygon style="fill:#755A32;" points="53.694,21.066 30.358,14.789 28.823,9.936 58.685,16.706 53.627,20.088 				"/>
			</g>
		</g>
		<path style="fill:#76310D;" d="M35.576,33.602C31.729,34.008-18.475,7.195-19.019,8.47c1.015-2.132-34.773,6.495-36.062,7.749
			c0.431-2.061-23.221-50.828-22.919-52.654c3.134-4.068,88.719-12.002,89.596-5.35c4.209,26.496,24.053,63.643,24.134,63.046
			c-0.01,0.001,0-0.017,0.022-0.052c1.328,1.617,3.241,3.909,5.282,6.22C38.437,31.136,36.402,33.514,35.576,33.602z"/>
		<polygon style="fill:#B98765;" points="33.354,32.542 -20.184,6.679 -54.583,13.949 -57.006,6.679 -54.583,10.314 -54.1,8.861 
			-51.919,11.041 -53.13,4.741 -47.316,11.041 -49.012,6.194 -44.651,11.041 -44.651,7.405 -41.986,10.072 -41.018,8.618 
			-39.322,9.83 -19.941,5.468 -18.487,2.317 -16.55,5.226 -18.004,-3.014 -11.704,6.194 -11.947,3.044 -8.797,7.405 -6.376,4.013 
			-4.215,8.958 22.663,26.394 24.148,27.212 25.031,27.046 24.392,24.062 29.236,30.363 24.876,17.761 		"/>
	</g>
	<g>
		<g>
			<path style="fill:#CC8653;" d="M-37.733-1.775c-0.544,10.351-0.573,26.497-0.568,31.554c-5.811-0.021-11.359-2.056-11.287-7.335
				l1.36-21.264l0.015-0.024C-45.65,1.284-42.184,0.655-37.733-1.775z"/>
			<path style="fill:#A76A3F;" d="M-37.733-1.775c0.084-0.046,0.166-0.088,0.252-0.136c0,0,1.328,3.897,10.894,3.979
				c0.181,2.272,1.196,16.75,0.667,23.826c-1.797,2.314-7.194,3.901-12.382,3.884C-38.307,24.722-38.277,8.576-37.733-1.775z"/>
			<path style="fill:#CC8653;" d="M-35.169-35.35c0.816,6.36-0.544,18.355-1.905,26.171c-0.15,0.866-0.282,2.041-0.399,3.44
				c-0.993,0.627-4.702,2.853-9.094,4.067l0.244-0.42c0,0-3.01-3.608-2.874-7.425c0.136-3.816,3.553-30.377,3.553-30.377
				s-4.897-2.726-5.033-5.452c-0.136-2.726,5.441-7.089,5.441-7.089s-0.688-17.852,0.407-18.718
				c1.097-0.865,2.372-1.852,7.421-2.182C-39.17-60.455-35.93-41.277-35.169-35.35z"/>
			<path style="fill:#A76A3F;" d="M-21.022-43.348c0,3.09-6.394,5.271-6.394,5.271s2.514,29.983,2.027,31.863
				c-0.486,1.88-2.164,3.576-3.795,5.575c0,0,0.484,0.181,1.035,0.523c-3.664-1.035-7.335-2.796-9.062-5.793
				c0,0-0.093,0.061-0.264,0.168c0.117-1.399,0.249-2.574,0.399-3.44c1.361-7.816,1.905-19.557,1.089-25.919
				c-0.762-5.927-3.184-25.357-1.422-38.237c3.159-0.208,11.957,0.807,12.712,2c0.754,1.195-0.273,15.993-1.633,19.99
				C-26.328-51.345-21.022-46.436-21.022-43.348z"/>
			<path style="fill:#703431;" d="M-37.481-1.911c-0.086,0.048-0.168,0.09-0.252,0.136c0.076-1.45,0.162-2.788,0.26-3.964
				c0.171-0.107,0.264-0.168,0.264-0.168c1.727,2.997,5.397,4.758,9.062,5.793c0.685,0.431,1.474,1.112,1.548,2.021
				c0.005,0.042,0.009,0.102,0.014,0.162C-36.153,1.987-37.481-1.911-37.481-1.911z"/>
			<path style="fill:#9D5629;" d="M-37.733-1.775c-4.45,2.43-7.917,3.059-10.481,2.93l1.936-3.368
				c4.391-1.214,7.812-2.9,8.805-3.527C-37.571-4.562-37.657-3.225-37.733-1.775z"/>
		</g>
		<path style="fill:#633619;" d="M-24.486-43.789c-7.719,4.568-11.772-1.012-11.772-1.012c-6.946,4.79-10.66,0.582-11.755-1.051
			C-36.136-56.788-26.665-46.521-24.486-43.789z"/>
		<path style="fill:none;" d="M-42.948-41.712c0.1,0.011,0.199,0.019,0.301,0.024l-0.14,0.522L-42.948-41.712z"/>
		<path style="fill:none;" d="M-36.831-43.518c0.189-0.122,0.379-0.24,0.573-0.374c0,0,0.181,0.245,0.532,0.591l-0.532,1.954
			L-36.831-43.518z"/>
		<path style="fill:none;" d="M-39.809-42.078c0.187-0.062,0.378-0.128,0.571-0.201l-0.285,1.113L-39.809-42.078z"/>
		<path style="fill:none;" d="M-28.974-41.18c0.083-0.013,0.165-0.022,0.249-0.037l-0.052,0.414L-28.974-41.18z"/>
		<path style="fill:none;" d="M-33.245-41.664c0.131,0.056,0.267,0.107,0.407,0.157l-0.155,0.885L-33.245-41.664z"/>
		<path d="M-34.353-48.074l1.34,5.767c-0.894-0.406-1.782-2.023-2.245-2.444L-34.353-48.074z"/>
		<path d="M-27.823-46.982l2.288,4.209c-0.804,0.34-2.092-0.248-2.801-0.112L-27.823-46.982z"/>
		<path d="M-42.139-43.312l1.12-4.215l1.608,4.86C-40.261-42.423-41.426-43.297-42.139-43.312z"/>
		<path d="M-37.618-48.254l1.06,3.835c-0.64,0.394-0.747-0.182-2.146,0.395L-37.618-48.254z"/>
		<path d="M-32.414-43.098l0.781-4.43l2.86,5.685C-30.031-41.718-31.496-42.801-32.414-43.098z"/>
		<path d="M-44.011-46.982l1.438,4.776c-1.125-0.165-2.435-1.785-3.18-2.315L-44.011-46.982z"/>
		<path style="fill:#D99865;" d="M-34.625-47.344l1.131,4.661c-0.894-0.406-1.573-0.921-2.034-1.341L-34.625-47.344z"/>
		<path style="fill:#D99865;" d="M-28.096-46.255l1.761,3.399c-0.806,0.338-1.562,0.566-2.273,0.7L-28.096-46.255z"/>
		<path style="fill:#EFB68A;" d="M-42.411-42.584l1.12-4.215l1.221,3.889C-40.919-42.666-41.698-42.569-42.411-42.584z"/>
		<path style="fill:#EFB68A;" d="M-37.89-47.526l0.854,3.231c-0.68,0.416-1.325,0.746-1.941,1L-37.89-47.526z"/>
		<path style="fill:#D99865;" d="M-32.685-42.371l0.779-4.429l2.484,4.761C-30.681-41.914-31.769-42.073-32.685-42.371z"/>
		<path style="fill:#EFB68A;" d="M-44.283-46.255l1.06,3.603c-1.126-0.166-2.056-0.611-2.801-1.14L-44.283-46.255z"/>
		<path d="M-48.364-45.528c0.118-0.112,0.233-0.217,0.352-0.324c0.364,0.543,1.021,1.372,1.988,2.06l-0.417,0.59
			C-47.747-44.278-48.364-45.528-48.364-45.528z"/>
		<path d="M-36.258-43.892c-0.194,0.134-0.384,0.252-0.573,0.374l-0.205-0.777c0.255-0.157,0.514-0.322,0.778-0.506
			c0,0,0.246,0.338,0.729,0.776l-0.197,0.724C-36.077-43.646-36.258-43.892-36.258-43.892z"/>
		<path d="M-28.974-41.18l-0.447-0.858c0.264-0.025,0.535-0.065,0.812-0.118l-0.116,0.939
			C-28.809-41.203-28.891-41.193-28.974-41.18z"/>
		<path d="M-33.245-41.664l-0.249-1.02c0.252,0.116,0.521,0.221,0.809,0.313l-0.153,0.864
			C-32.979-41.556-33.114-41.608-33.245-41.664z"/>
		<path d="M-39.809-42.078l-0.262-0.833c0.353-0.102,0.718-0.229,1.094-0.385l-0.261,1.016
			C-39.431-42.206-39.622-42.139-39.809-42.078z"/>
		<path d="M-25.949-42.111l-0.386-0.746c0.591-0.249,1.205-0.553,1.849-0.933c0.309,0.389,0.471,0.624,0.471,0.624
			C-24.688-42.738-25.331-42.394-25.949-42.111z"/>
		<path d="M-42.948-41.712l-0.275-0.94c0.261,0.039,0.532,0.061,0.812,0.068l-0.236,0.896
			C-42.749-41.694-42.849-41.702-42.948-41.712z"/>
		<path d="M-32.838-41.506l0.153-0.864c0.916,0.298,2.004,0.457,3.264,0.332l0.447,0.858C-30.496-40.954-31.786-41.14-32.838-41.506
			z"/>
		<path d="M-28.725-41.217l0.116-0.939c0.711-0.134,1.468-0.361,2.273-0.7l0.386,0.746C-26.944-41.658-27.872-41.369-28.725-41.217z
			"/>
		<path d="M-39.237-42.279l0.261-1.016c0.615-0.254,1.261-0.584,1.941-1l0.205,0.777C-37.683-42.977-38.485-42.568-39.237-42.279z"
			/>
		<path d="M-42.647-41.688l0.236-0.896c0.713,0.016,1.492-0.082,2.341-0.326l0.262,0.833
			C-40.857-41.744-41.802-41.639-42.647-41.688z"/>
		<path d="M-35.726-43.301l0.197-0.724c0.461,0.42,1.141,0.935,2.034,1.341l0.249,1.02C-34.405-42.144-35.235-42.818-35.726-43.301z
			"/>
		<path d="M-46.441-43.202l0.417-0.59c0.745,0.528,1.675,0.974,2.801,1.14l0.275,0.94C-44.424-41.866-45.582-42.494-46.441-43.202z"
			/>
		<g>
			<path style="fill:none;" d="M-37.487-52.309l0.095,0.604c-0.09,0.004-0.182,0.012-0.272,0.019L-37.487-52.309z"/>
			<path style="fill:none;" d="M-32.349-51.363l0.253,0.604c-0.106-0.044-0.215-0.086-0.325-0.13L-32.349-51.363z"/>
			<path style="fill:none;" d="M-34.652-52.191l0.15,0.7c-0.107-0.021-0.213-0.04-0.321-0.059L-34.652-52.191z"/>
			<path style="fill:none;" d="M-41.12-51.48l0.115,0.503c-0.101,0.036-0.199,0.068-0.302,0.107L-41.12-51.48z"/>
			<path d="M-36.151-45.304l-0.769-5.474c0.695,0.009,1.371,0.077,2.027,0.196L-36.151-45.304z"/>
			<path d="M-39.341-44.507l-1.165-5.747c0.942-0.286,1.861-0.446,2.754-0.502L-39.341-44.507z"/>
			<path d="M-42.796-44.772l-0.881-4.06c0.774-0.462,1.538-0.828,2.288-1.118L-42.796-44.772z"/>
			<path d="M-32.963-45.304l-0.964-5.061c0.542,0.144,1.071,0.321,1.582,0.527L-32.963-45.304z"/>
			<path d="M-29.241-44.242l-1.891-5.045c0.987,0.499,1.899,1.089,2.726,1.71L-29.241-44.242z"/>
			<path style="fill:#D99865;" d="M-36.424-45.562l-0.77-4.88c0.694,0.006,1.372,0.067,2.028,0.174L-36.424-45.562z"/>
			<path style="fill:#EFB68A;" d="M-39.613-44.852l-1.166-5.126c0.943-0.256,1.862-0.396,2.755-0.446L-39.613-44.852z"/>
			<path style="fill:#EFB68A;" d="M-43.068-45.088l-0.881-3.621c0.774-0.411,1.537-0.739,2.289-0.996L-43.068-45.088z"/>
			<path style="fill:#D99865;" d="M-33.235-45.562l-0.964-4.513c0.543,0.127,1.071,0.287,1.582,0.47L-33.235-45.562z"/>
			<path style="fill:#D99865;" d="M-29.513-44.614l-1.892-4.5c0.986,0.445,1.898,0.97,2.727,1.525L-29.513-44.614z"/>
			<path style="fill:#997255;" d="M-32.096-50.759l0.691,1.645c-0.393-0.178-0.798-0.342-1.213-0.491l0.196-1.284
				C-32.311-50.845-32.202-50.803-32.096-50.759z"/>
			<path style="fill:#997255;" d="M-41.005-50.977l0.226,1c-0.291,0.079-0.586,0.172-0.881,0.272l0.354-1.165
				C-41.204-50.909-41.105-50.941-41.005-50.977z"/>
			<path style="fill:#997255;" d="M-48.315-45.551c-0.234-0.352,0.309-0.876,0.309-0.876c1.327-1.265,2.62-2.262,3.874-3.035
				l0.184,0.753C-45.371-47.952-46.831-46.918-48.315-45.551z"/>
			<path style="fill:#997255;" d="M-37.393-51.705l0.199,1.262c-0.274-0.004-0.552,0.003-0.831,0.019l0.359-1.262
				C-37.574-51.693-37.482-51.701-37.393-51.705z"/>
			<path style="fill:#997255;" d="M-23.993-43.339c-0.729-0.916-2.375-2.7-4.684-4.25l0.281-1.005
				c2.681,2.061,4.212,4.382,4.212,4.382C-24.346-44.111-23.836-43.43-23.993-43.339z"/>
			<path style="fill:#997255;" d="M-34.502-51.491l0.303,1.416c-0.316-0.076-0.64-0.141-0.966-0.193l0.342-1.281
				C-34.715-51.531-34.609-51.511-34.502-51.491z"/>
			<path style="fill:#997255;" d="M-31.404-49.114l-0.691-1.645c1.398,0.574,2.639,1.348,3.699,2.164l-0.281,1.005
				C-29.506-48.145-30.418-48.669-31.404-49.114z"/>
			<path style="fill:#997255;" d="M-34.823-51.549l-0.342,1.281c-0.656-0.106-1.334-0.168-2.028-0.174l-0.199-1.262
				C-36.5-51.749-35.643-51.688-34.823-51.549z"/>
			<path style="fill:#997255;" d="M-37.665-51.686l-0.359,1.262c-0.893,0.05-1.812,0.19-2.755,0.446l-0.226-1
				C-39.848-51.385-38.731-51.611-37.665-51.686z"/>
			<path style="fill:#997255;" d="M-41.66-49.705c-0.752,0.257-1.515,0.585-2.289,0.996l-0.184-0.753
				c0.967-0.599,1.911-1.061,2.826-1.408L-41.66-49.705z"/>
			<path style="fill:#997255;" d="M-32.421-50.889l-0.196,1.284c-0.511-0.183-1.039-0.343-1.582-0.47l-0.303-1.416
				C-33.776-51.346-33.083-51.141-32.421-50.889z"/>
		</g>
		<path style="opacity:0.72;fill:#CD8856;" d="M-36.731-40.639c0,0-3.576,2.826-8.881,0.827c0,0,0.802,3.943,9.219,1.312
			c0,0,2.856,2.605,8.978,0.424C-27.416-38.076-32.65-36.822-36.731-40.639"/>
		<path style="opacity:0.67;fill:#633619;" d="M-45.235-52.435c0,0,2.875-3.308,7.659-3.071c4.784,0.238,11.248,4.161,11.248,4.161
			s-5.577-6.291-11.336-5.817C-43.423-56.689-45.235-52.435-45.235-52.435z"/>
		<g>
			<path style="fill:#D9A57C;" d="M-38.133-9.136c0.222,0.216,0.443,0.435,0.674,0.674c0,0-11.615,10.631-11.131-0.695
				C-48.226-1.334-40.486-7.173-38.133-9.136z"/>
			<path style="opacity:0.67;fill:#633619;" d="M-48.589-9.186c0,0.011,0,0.019-0.001,0.028c-0.018-0.394-0.02-0.818,0.001-1.284
				c0,0,1.529-9,10.762,0.566c0,0,0.705,0.908,0.281,1.262C-46.194-17.063-48.589-9.186-48.589-9.186z"/>
			<path style="opacity:0.72;fill:#CD8856;" d="M-38.133-9.136c-2.354,1.963-10.093,7.802-10.457-0.021
				c0.001-0.01,0.001-0.018,0.001-0.028C-48.589-9.186-46.781-17.586-38.133-9.136z"/>
			<path style="fill:#CD8856;" d="M-38.133-9.136c-2.354,1.963-9.773,8.777-10.457-0.021c0.001-0.01,0.001-0.018,0.001-0.028
				C-48.589-9.186-46.781-17.586-38.133-9.136z"/>
		</g>
		<path style="fill:#633619;" d="M-39.584-9.186c0,0-7.288,6.498-6.963,0.157C-46.547-9.029-45.521-14.52-39.584-9.186z"/>
		<path style="fill:#AE8880;" d="M-42.375-9.072c0-1.14-0.601-2.063-1.341-2.063c-0.74,0-1.341,0.923-1.341,2.063
			c0,1.141,0.6,2.063,1.341,2.063C-42.976-7.008-42.375-7.931-42.375-9.072z"/>
		<path style="fill:#CD8856;" d="M-42.487-9.302c0-1.043-0.55-1.891-1.229-1.891s-1.229,0.848-1.229,1.891
			c0,1.045,0.55,1.893,1.229,1.893S-42.487-8.257-42.487-9.302z"/>
		<g>
			<path style="fill:#B48A68;" d="M-36.678-9.041c-0.227,0.216-0.454,0.434-0.69,0.672c0,0,11.898,10.633,11.4-0.693
				C-26.341-1.238-34.267-7.078-36.678-9.041z"/>
			<path style="opacity:0.67;fill:#5B2F14;" d="M-25.968-9.089c0,0.009,0,0.018,0,0.027c0.021-0.393,0.021-0.82,0-1.284
				c0,0-1.566-9.001-11.023,0.566c0,0-0.722,0.907-0.288,1.262C-28.42-16.968-25.968-9.089-25.968-9.089z"/>
			<path style="opacity:0.72;fill:#CD8856;" d="M-36.678-9.041c2.411,1.963,10.337,7.802,10.71-0.021c0-0.01,0-0.019,0-0.027
				C-25.968-9.089-27.818-17.49-36.678-9.041z"/>
			<path style="fill:#A26D45;" d="M-36.678-9.041c2.411,1.963,10.012,8.776,10.71-0.021c0-0.01,0-0.019,0-0.027
				C-25.968-9.089-27.818-17.49-36.678-9.041z"/>
		</g>
		<path style="fill:#3A1A08;" d="M-35.245-9.091c0,0,7.29,6.498,6.964,0.158C-28.281-8.933-29.308-14.424-35.245-9.091z"/>
		<path style="fill:#7C4E49;" d="M-32.453-8.976c0-1.141,0.601-2.065,1.341-2.065c0.739,0,1.341,0.924,1.341,2.065
			c0,1.14-0.601,2.063-1.341,2.063C-31.853-6.913-32.453-7.836-32.453-8.976z"/>
		<path style="fill:#B0754B;" d="M-32.34-9.206c0-1.045,0.549-1.893,1.228-1.893c0.679,0,1.229,0.848,1.229,1.893
			c0,1.045-0.55,1.891-1.229,1.891C-31.791-7.315-32.34-8.161-32.34-9.206z"/>
		<g>
			<polygon style="fill:#CD8855;" points="-37.343,-9.51 -40.475,-28.322 -43.285,-31.109 -43.007,-31.252 -36.847,-30.503 
				-36.533,-30.521 -37.225,-10.091 			"/>
			<polygon style="fill:#C67943;" points="-29.773,-30.625 -33.492,-28.443 -37.225,-10.091 -36.533,-30.521 -30.114,-30.859 			"/>
		</g>
		<g>
			<polygon style="fill:#985328;" points="-43.007,-31.252 -35.94,-34.866 -35.898,-34.837 -36.853,-30.503 			"/>
			<polygon style="fill:#7E3A14;" points="-36.847,-30.503 -36.853,-30.503 -35.898,-34.837 -30.114,-30.859 			"/>
		</g>
		<g>
			<path style="fill:#BF6830;" d="M-36.197,4.864l-0.043-0.385c0.699,0.493,4.463,3.06,7.758,3.45
				c0.578,0.206,1.088,0.374,1.481,0.5C-30.856,8.787-36.197,4.864-36.197,4.864z"/>
			<path style="fill:#703431;" d="M-36.43,2.762c0.756,2.275,5.155,4.172,7.947,5.167c-3.295-0.39-7.059-2.957-7.758-3.45
				L-36.43,2.762z"/>
			<path style="fill:#BF6830;" d="M-36.197,8.582l-0.043-0.385c0.699,0.493,4.463,3.06,7.758,3.45
				c0.578,0.206,1.088,0.374,1.481,0.5C-30.856,12.504-36.197,8.582-36.197,8.582z"/>
			<path style="fill:#703431;" d="M-36.43,6.479c0.756,2.275,5.155,4.17,7.947,5.167c-3.295-0.39-7.059-2.957-7.758-3.45
				L-36.43,6.479z"/>
			<path style="fill:#BF6830;" d="M-36.197,12.299l-0.043-0.387c0.699,0.496,4.463,3.06,7.758,3.452
				c0.578,0.206,1.088,0.374,1.481,0.499C-30.856,16.222-36.197,12.299-36.197,12.299z"/>
			<path style="fill:#703431;" d="M-36.43,10.197c0.756,2.275,5.155,4.169,7.947,5.167c-3.295-0.392-7.059-2.957-7.758-3.452
				L-36.43,10.197z"/>
			<path style="fill:#BF6830;" d="M-27.001,19.58c-3.855,0.358-9.196-3.563-9.196-3.563l-0.043-0.385
				c0.699,0.491,4.463,3.058,7.758,3.45C-27.904,19.288-27.395,19.456-27.001,19.58z"/>
			<path style="fill:#703431;" d="M-28.482,19.081c-3.295-0.392-7.059-2.958-7.758-3.45l-0.189-1.717
				C-35.674,16.19-31.274,18.085-28.482,19.081z"/>
		</g>
		<g>
			<path style="fill:#D19262;" d="M-39.161,4.864l0.041-0.385c-0.697,0.493-4.462,3.06-7.757,3.45
				c-0.578,0.206-1.088,0.374-1.481,0.5C-44.502,8.787-39.161,4.864-39.161,4.864z"/>
			<path style="fill:#703431;" d="M-38.929,2.762c-0.756,2.275-5.155,4.172-7.948,5.167c3.295-0.39,7.06-2.957,7.757-3.45
				L-38.929,2.762z"/>
			<path style="fill:#D19262;" d="M-39.161,8.582l0.041-0.385c-0.697,0.493-4.462,3.06-7.757,3.45
				c-0.578,0.206-1.088,0.374-1.481,0.5C-44.502,12.504-39.161,8.582-39.161,8.582z"/>
			<path style="fill:#703431;" d="M-38.929,6.479c-0.756,2.275-5.155,4.17-7.948,5.167c3.295-0.39,7.06-2.957,7.757-3.45
				L-38.929,6.479z"/>
			<path style="fill:#D19262;" d="M-39.161,12.299l0.041-0.387c-0.697,0.496-4.462,3.06-7.757,3.452
				c-0.578,0.206-1.088,0.374-1.481,0.499C-44.502,16.222-39.161,12.299-39.161,12.299z"/>
			<path style="fill:#703431;" d="M-38.929,10.197c-0.756,2.275-5.155,4.169-7.948,5.167c3.295-0.392,7.06-2.957,7.757-3.452
				L-38.929,10.197z"/>
			<path style="fill:#D19262;" d="M-48.358,19.58c3.856,0.358,9.197-3.563,9.197-3.563l0.041-0.385
				c-0.697,0.491-4.462,3.058-7.757,3.45C-47.455,19.288-47.965,19.456-48.358,19.58z"/>
			<path style="fill:#703431;" d="M-46.877,19.081c3.295-0.392,7.06-2.958,7.757-3.45l0.191-1.717
				C-39.685,16.19-44.084,18.085-46.877,19.081z"/>
		</g>
		<path style="fill:#985328;" d="M-47.784-20.277c0,0,4.451-1.7,9.255,7.928c0,0-2.896-13.877-9.396-8.212"/>
		<path style="fill:#622D2A;" d="M-35.704-13.104c0,0,2.826-8.023,8.974-6.701C-26.73-19.805-34.291-25.375-35.704-13.104z"/>
		<polyline style="fill:#985328;" points="-45.825,28.258 -45.644,21.596 -45.371,28.501 		"/>
		<polygon style="fill:#985328;" points="-42.973,29.294 -42.683,20.253 -42.576,17.321 -42.471,16.367 -42.418,12.906 
			-42.761,29.294 		"/>
		<g>
			<path style="fill:none;" d="M-39.423,29.712c-0.063-4.593,0.192-9.185,0.637-13.692"/>
			<g>
				<path style="fill:#8B4016;" d="M-39.27,29.709l0.039-0.461l-0.056-0.309l-0.055-0.345l-0.021-0.462l0.067-0.384l0.071-0.5
					l-0.021-0.5l-0.078-0.733l-0.08-0.619l-0.196-0.97l0.197-0.726l0.041-0.578l0.082-0.497l-0.024-0.503l-0.034-0.774l0.035-0.461
					c0,0,0.088-0.766,0.127-0.88c0.039-0.112,0.097-0.881,0.097-0.881l0.135-0.57l-0.095-0.78c0,0,0.075-0.187,0.15-0.375
					c0.075-0.185,0.195-0.56,0.236-0.711c0.042-0.15,0.049-0.652,0.049-0.652l-0.007,0.502l-0.06,0.806l-0.161,0.524l0.087,0.472
					L-38.81,18.8l-0.096,0.456l-0.068,0.497l-0.031,0.422l0.03,0.426l-0.079,0.227l-0.048,0.229l-0.053,0.305l0.01,0.271l0.03,0.425
					l0.035,0.349l-0.054,0.305l-0.043,0.307l-0.102,0.497l-0.04,0.498l-0.069,0.461l0.115,0.35l0.088,0.271l0.078,0.695
					l-0.005,0.268l0.02,0.578l-0.039,0.461l-0.008,0.422l-0.008,0.461l-0.006,0.307l0.02,0.576L-39.27,29.709z"/>
			</g>
		</g>
		<g>
			<path style="fill:none;" d="M-42.764-71.846c-0.247,3.628-0.823,7.477-0.411,11.214"/>
			<g>
				<path style="fill:#8B4016;" d="M-42.917-71.856l-0.061,0.375l0.04,0.256l0.038,0.287l-0.001,0.38l-0.087,0.31l-0.095,0.405
					l-0.003,0.41l0.043,0.606l0.05,0.511l0.151,0.802l-0.231,0.584l-0.068,0.469l-0.084,0.406l0.046,0.412l0.068,0.634l-0.013,0.377
					c0,0-0.054,0.629-0.088,0.723c-0.043,0.094-0.048,0.725-0.035,0.724l-0.066,0.476l0.186,0.62c0,0-0.054,0.161-0.106,0.324
					c-0.054,0.162-0.129,0.485-0.151,0.615c-0.025,0.131,0.027,0.54,0.027,0.54l-0.053-0.409l-0.033-0.668l0.1-0.452l-0.142-0.375
					l0.011-0.382l0.041-0.382l0.031-0.411l0.013-0.349l-0.049-0.348l0.067-0.19l0.038-0.187l0.04-0.252l-0.022-0.223l-0.049-0.35
					l-0.051-0.29l0.04-0.25l0.043-0.251l0.125-0.403l0.063-0.407l0.092-0.372l-0.1-0.294l-0.073-0.226l-0.045-0.574l0.017-0.222
					l0.007-0.474l0.062-0.376l0.029-0.345l0.03-0.377l0.021-0.25l0.008-0.473L-42.917-71.856z"/>
			</g>
		</g>
		<path style="fill:#50260D;" d="M-48.33,26.191c0,0,0.088-1.472,0.175-1.784c0.088-0.31,0.029-0.774,0.029-0.774l-0.116-0.854
			l0.116-0.695l0.028-1.24l0.145-2.249l-0.114-3.683l0.174-0.776l0.116-1.044l0.086-1.59l0.117-1.705v2.636l-0.117,1.007
			l-0.173,1.279l0.087,1.124l-0.029,1.125l0.058,1.084l0.029,1.163c0,0-0.087,1.046-0.058,1.239
			c0.028,0.196-0.087,0.893-0.087,1.047c0,0.153-0.029,0.892-0.029,0.892s-0.146,0.425-0.087,0.619
			c0.058,0.193,0.145,0.776,0.145,0.776s-0.203,1.24-0.203,1.355c0,0.117-0.059,0.582-0.059,0.582l-0.028,0.464v0.311"/>
		<polyline style="fill:#985328;" points="-47.446,7.541 -47.276,4.042 -47.242,3.178 -47.14,2.497 -47.072,1.225 -46.902,1.225 
			-46.936,2.225 -46.97,2.907 -47.038,3.904 -47.174,5.859 		"/>
		<path style="fill:#633619;" d="M-46.442-15.019l1.332-21.522C-45.11-36.542-45.896-17.608-46.442-15.019z"/>
		<path style="fill:#633619;" d="M-43.959-18.419c0,0,0.182-8.414,0.303-8.9C-43.535-27.804-43.656-19.955-43.959-18.419z"/>
		<path style="fill:#633619;" d="M-43.232-37.838l-0.303,8.092C-43.535-29.746-42.99-37.028-43.232-37.838z"/>
		<path style="fill:#633619;" d="M-26.641-13.402l-1.21-16.828C-27.851-30.23-27.003-14.938-26.641-13.402z"/>
		<path style="fill:#633619;" d="M-30.455-17.933l0.183-11.246C-30.272-29.179-30.818-18.985-30.455-17.933z"/>
		<polygon style="fill:#633619;" points="-45.412,5.612 -45.292,1 -45.235,0.783 -44.564,-1.832 		"/>
		<path style="fill:#633619;" d="M-35.359-1.426v4.369C-35.359,2.943-34.875-0.375-35.359-1.426z"/>
		<path style="fill:#633619;" d="M-30.043-0.135l-0.242-3.56C-30.285-3.695-29.74-1.511-30.043-0.135z"/>
		<path style="fill:#633619;" d="M-43.898-7.333c0,0-0.061-2.021,0.061-2.588C-43.717-10.488-43.717-7.818-43.898-7.333z"/>
		<path style="fill:#633619;" d="M-34.831-3.942c0,0-0.242-2.104,0.06-2.67C-34.771-6.612-34.649-4.429-34.831-3.942z"/>
		<path style="fill:#633619;" d="M-31.727-7.495l-0.121-2.914C-31.848-10.408-31.363-8.466-31.727-7.495z"/>
		<path style="fill:#633619;" d="M-38.341-14.139c0,0-0.181-5.577-0.395-6.538C-38.948-21.636-38.341-14.139-38.341-14.139z"/>
		<path style="fill:#633619;" d="M-36.068-20.501c0,0,0.6-5.201,0.867-5.792C-34.935-26.886-36.068-20.501-36.068-20.501z"/>
		<polygon style="fill:#633619;" points="-38.995,-31.688 -39.356,-30.796 -39.055,-26.59 -39.114,-30.554 		"/>
		<path style="fill:#633619;" d="M-30.272,26.245c0,0,0.061-5.259,0.303-5.746C-29.728,20.015-30.272,26.245-30.272,26.245z"/>
		<path style="fill:#633619;" d="M-28.819,17.345c0,0,0.606-12.622,0.364-13.351C-28.698,3.266-28.819,17.345-28.819,17.345z"/>
		<path style="fill:#633619;" d="M-28.847-35.776l-0.163,11.923C-29.01-23.853-29.074-35.124-28.847-35.776z"/>
		<polygon style="fill:#633619;" points="-31.713,-37.257 -30.801,-37.953 -30.932,-40.345 -30.964,-37.997 		"/>
		<polygon style="fill:#633619;" points="-40.377,-37.866 -42.006,-39.083 -41.973,-40.869 -41.777,-39.171 		"/>
		<polygon style="fill:#633619;" points="-40.052,-59.581 -40.052,-55.316 -40.411,-55.186 -40.411,-53.009 -40.671,-55.098 
			-40.312,-55.445 		"/>
		<polygon style="fill:#633619;" points="-33.147,-49.745 -33.44,-51.225 -33.44,-53.619 -33.245,-51.225 		"/>
		<polyline style="fill:#633619;" points="-22.887,-40.52 -22.887,-44.088 -22.724,-40.651 		"/>
		<polyline style="fill:#633619;" points="-31.975,-51.181 -32.007,-54.01 -31.778,-53.925 		"/>
		<polyline style="fill:#633619;" points="-31.519,-72.941 -31.909,-56.883 -31.323,-73.027 		"/>
		<polyline style="fill:#633619;" points="-34.124,-73.072 -34.058,-62.236 -33.896,-73.203 		"/>
		<polyline style="fill:#633619;" points="-26.925,-71.81 -27.154,-66.196 -27.154,-72.026 		"/>
		<polyline style="fill:#633619;" points="-44.123,-71.417 -44.416,-57.971 -43.928,-71.592 		"/>
		<polyline style="fill:#633619;" points="-40.346,-72.81 -40.865,-59.189 -40.215,-72.898 		"/>
		<polyline style="fill:#633619;" points="-46.273,-51.139 -46.175,-48.615 -46.143,-51.269 		"/>
		<polyline style="fill:#633619;" points="-49.693,-47.483 -49.823,-43.914 -49.562,-47.831 		"/>
		<polyline style="fill:#633619;" points="-34.176,29.367 -33.554,15.243 -33.513,29.209 		"/>
		<polygon style="fill:#633619;" points="-32.508,-1.42 -31.797,1.309 -32.063,5.464 -32.152,1.309 		"/>
		<polygon style="fill:#633619;" points="-45.549,-6.279 -45.76,-4.873 -45.233,-3.889 -45.198,-2.622 -45.549,-1.497 
			-44.988,-2.622 -45.022,-3.794 -45.514,-4.779 		"/>
		<polyline style="fill:#633619;" points="-40.566,-6.606 -40.427,-4.17 -41.373,0.003 -41.409,4.27 -41.163,-0.092 -40.216,-4.31 
					"/>
	</g>
	
		<line style="fill:none;stroke:#9E7F66;stroke-width:2.6153;stroke-linecap:round;stroke-linejoin:round;" x1="14.955" y1="-48.784" x2="21.679" y2="-39.444"/>
	
		<line style="fill:none;stroke:#755A32;stroke-width:2.6153;stroke-linecap:round;stroke-linejoin:round;" x1="35.502" y1="-36.827" x2="45.962" y2="-45.423"/>
	
		<line style="fill:none;stroke:#9E7F66;stroke-width:2.6153;stroke-linecap:round;stroke-linejoin:round;" x1="38.116" y1="-35.333" x2="45.962" y2="-42.059"/>
	
		<line style="fill:none;stroke:#B89178;stroke-width:2.6153;stroke-linecap:round;stroke-linejoin:round;" x1="23.921" y1="-43.554" x2="38.863" y2="-41.685"/>
	
		<line style="fill:none;stroke:#B89178;stroke-width:2.6153;stroke-linecap:round;stroke-linejoin:round;" x1="26.16" y1="-39.816" x2="36.249" y2="-38.322"/>
	
		<line style="fill:none;stroke:#755A32;stroke-width:2.6153;stroke-linecap:round;stroke-linejoin:round;" x1="-1.488" y1="-58.872" x2="-5.388" y2="-58.454"/>
	<g>
		<path style="fill:#755A32;" d="M31.13-4.882c-0.306,0.348-0.496,0.537-0.496,0.537s-5.021-4.983-5.021-11.132
			c0-6.148,5.021-11.132,5.021-11.132s0.19,0.188,0.496,0.537c-1.267,1.444-4.526,5.641-4.526,10.595
			C26.604-10.523,29.863-6.325,31.13-4.882z"/>
		<path style="fill:#A74E49;" d="M31.13-4.882c-1.267-1.443-4.526-5.642-4.526-10.595c0-4.955,3.26-9.151,4.526-10.595
			c1.266,1.444,4.525,5.641,4.525,10.595C35.655-10.523,32.396-6.325,31.13-4.882z"/>
	</g>
	<path style="fill:#E08D28;" d="M30.964-14.54c0-0.639-1.011-1.159-2.258-1.159c-1.247,0-2.26,0.519-2.26,1.159
		c0,0.639,1.013,1.156,2.26,1.156C29.953-13.383,30.964-13.901,30.964-14.54z"/>
	<path style="fill:#A74E49;" d="M30.083-14.54c0-0.391-0.617-0.707-1.377-0.707c-0.761,0-1.378,0.316-1.378,0.707
		c0,0.388,0.617,0.705,1.378,0.705C29.466-13.835,30.083-14.152,30.083-14.54z"/>
	<path style="fill:#E08D28;" d="M35.812-14.54c0-0.639-1.011-1.159-2.259-1.159c-1.247,0-2.259,0.519-2.259,1.159
		c0,0.639,1.012,1.156,2.259,1.156C34.802-13.383,35.812-13.901,35.812-14.54z"/>
	<path style="fill:#A74E49;" d="M35.168-14.54c0-0.457-0.723-0.828-1.614-0.828c-0.892,0-1.613,0.371-1.613,0.828
		c0,0.456,0.722,0.826,1.613,0.826C34.445-13.713,35.168-14.083,35.168-14.54z"/>
	<polygon style="fill:#E08D28;" points="31.405,-15.366 33.058,-19.445 32.948,-20.105 29.642,-19.885 29.532,-19.224 	"/>
	<path style="fill:#E08D28;" d="M28.65-21.98c0,0,0.882,0.992,2.534,0.992l2.093-1.433L28.65-21.98z"/>
	<polygon style="fill:#EFB801;" points="28.65,-21.98 30.964,-23.523 33.277,-22.421 	"/>
	<polygon style="fill:#EFB801;" points="30.192,-12.061 27.659,-10.958 27.988,-9.746 	"/>
	<path style="fill:#EFB801;" d="M30.854-11.289c-0.014,0.039-0.06,0.103-0.13,0.186c-0.522,0.613-2.405,2.24-2.405,2.24l0.661,1.213
		"/>
	<polygon style="fill:#EFB801;" points="30.964,-5.447 30.192,-6.438 31.074,-10.406 31.405,-6.218 	"/>
	<polygon style="fill:#EFB801;" points="31.625,-10.517 32.838,-7.541 33.498,-9.083 	"/>
	<polyline style="fill:#B98765;" points="-55.069,7.405 -73.964,-31.608 -55.311,4.256 -67.181,-22.885 -53.373,2.802 
		-55.553,1.348 -53.857,7.891 	"/>
</symbol>
<use xlink:href="#Tiki-Hütte"  width="165.96" height="157.608" x="-82.979" y="-78.804" transform="matrix(1 0 0 -1 101.388 89.7949)" style="overflow:visible;"/>
</svg>
